<!DOCTYPE svg PUBLIC "-//W3C//DTD SVG 1.1//EN" "http://www.w3.org/Graphics/SVG/1.1/DTD/svg11.dtd">
<svg xmlns="http://www.w3.org/2000/svg" xmlns:xlink="http://www.w3.org/1999/xlink" xmlns:jfreesvg="http://www.jfree.org/jfreesvg/svg" width="1000" height="900" text-rendering="auto" shape-rendering="auto">
<defs><clipPath id="_26427566114591clip-0"><path d="M 0 0 L 1000 0 L 1000 900 L 0 900 L 0 0 Z "/></clipPath>
<clipPath id="_26427566114591clip-1"><path d="M 448 409 L 448 1409 L -452 1409 L -452 409 L 448 409 Z "/></clipPath>
<clipPath id="_26427566114591clip-2"><path d="M 85 34 L 85 823 L 988 823 L 988 34 Z "/></clipPath>
</defs>
<rect x="0" y="0" width="1000" height="900" style="fill: rgb(255,255,255); fill-opacity: 1.0" clip-path="url(#_26427566114591clip-0)"/><g ><text x="124" y="19.56" style="fill: rgb(0,0,0); fill-opacity: 1.0; font-family: sans-serif; font-size: 20px; font-weight: bold;" clip-path="url(#_26427566114591clip-0)">Changing the price of the Harry Potter book Cost in BLR1426.9622</text></g><rect x="435" y="878" width="130" height="21" style="fill: rgb(255,255,255); fill-opacity: 1.0" clip-path="url(#_26427566114591clip-0)"/><g style="fill: rgb(255,85,85); fill-opacity: 1.0; stroke: none" clip-path="url(#_26427566114591clip-0)"><path d="M 438 884.5 L 446 884.5 L 446 892.5 L 438 892.5 L 438 884.5 Z "/></g><g ><text x="450" y="892.14" style="fill: rgb(64,64,64); fill-opacity: 1.0; font-family: sans-serif; font-size: 12px;" clip-path="url(#_26427566114591clip-0)">EUR</text></g><g style="fill: rgb(85,85,255); fill-opacity: 1.0; stroke: none" clip-path="url(#_26427566114591clip-0)"><path d="M 481 884.5 L 489 884.5 L 489 892.5 L 481 892.5 L 481 884.5 Z "/></g><g ><text x="493" y="892.14" style="fill: rgb(64,64,64); fill-opacity: 1.0; font-family: sans-serif; font-size: 12px;" clip-path="url(#_26427566114591clip-0)">USD</text></g><g style="fill: rgb(85,255,85); fill-opacity: 1.0; stroke: none" clip-path="url(#_26427566114591clip-0)"><path d="M 525 884.5 L 533 884.5 L 533 892.5 L 525 892.5 L 525 884.5 Z "/></g><g ><text x="537" y="892.14" style="fill: rgb(64,64,64); fill-opacity: 1.0; font-family: sans-serif; font-size: 12px;" clip-path="url(#_26427566114591clip-0)">RUB</text></g><rect x="85" y="34" width="903" height="789" style="fill: rgb(192,192,192); fill-opacity: 1.0" clip-path="url(#_26427566114591clip-0)"/><line x1="85" y1="827" x2="988" y2="827" style="stroke-width: 0.5;stroke: rgb(128,128,128);stroke-opacity: 1.0;stroke-linecap: square;stroke-miterlimit: 10;shape-rendering:crispEdges;" clip-path="url(#_26427566114591clip-0)"/><line x1="169.66" y1="827" x2="169.66" y2="827" style="stroke-width: 0.5;stroke: rgb(128,128,128);stroke-opacity: 1.0;stroke-linecap: square;stroke-miterlimit: 10;shape-rendering:crispEdges;" clip-path="url(#_26427566114591clip-0)"/><line x1="169.66" y1="827" x2="169.66" y2="829" style="stroke-width: 0.5;stroke: rgb(128,128,128);stroke-opacity: 1.0;stroke-linecap: square;stroke-miterlimit: 10;shape-rendering:crispEdges;" clip-path="url(#_26427566114591clip-0)"/><line x1="274.47" y1="827" x2="274.47" y2="827" style="stroke-width: 0.5;stroke: rgb(128,128,128);stroke-opacity: 1.0;stroke-linecap: square;stroke-miterlimit: 10;shape-rendering:crispEdges;" clip-path="url(#_26427566114591clip-0)"/><line x1="274.47" y1="827" x2="274.47" y2="829" style="stroke-width: 0.5;stroke: rgb(128,128,128);stroke-opacity: 1.0;stroke-linecap: square;stroke-miterlimit: 10;shape-rendering:crispEdges;" clip-path="url(#_26427566114591clip-0)"/><line x1="379.28" y1="827" x2="379.28" y2="827" style="stroke-width: 0.5;stroke: rgb(128,128,128);stroke-opacity: 1.0;stroke-linecap: square;stroke-miterlimit: 10;shape-rendering:crispEdges;" clip-path="url(#_26427566114591clip-0)"/><line x1="379.28" y1="827" x2="379.28" y2="829" style="stroke-width: 0.5;stroke: rgb(128,128,128);stroke-opacity: 1.0;stroke-linecap: square;stroke-miterlimit: 10;shape-rendering:crispEdges;" clip-path="url(#_26427566114591clip-0)"/><line x1="484.09" y1="827" x2="484.09" y2="827" style="stroke-width: 0.5;stroke: rgb(128,128,128);stroke-opacity: 1.0;stroke-linecap: square;stroke-miterlimit: 10;shape-rendering:crispEdges;" clip-path="url(#_26427566114591clip-0)"/><line x1="484.09" y1="827" x2="484.09" y2="829" style="stroke-width: 0.5;stroke: rgb(128,128,128);stroke-opacity: 1.0;stroke-linecap: square;stroke-miterlimit: 10;shape-rendering:crispEdges;" clip-path="url(#_26427566114591clip-0)"/><line x1="588.91" y1="827" x2="588.91" y2="827" style="stroke-width: 0.5;stroke: rgb(128,128,128);stroke-opacity: 1.0;stroke-linecap: square;stroke-miterlimit: 10;shape-rendering:crispEdges;" clip-path="url(#_26427566114591clip-0)"/><line x1="588.91" y1="827" x2="588.91" y2="829" style="stroke-width: 0.5;stroke: rgb(128,128,128);stroke-opacity: 1.0;stroke-linecap: square;stroke-miterlimit: 10;shape-rendering:crispEdges;" clip-path="url(#_26427566114591clip-0)"/><line x1="693.72" y1="827" x2="693.72" y2="827" style="stroke-width: 0.5;stroke: rgb(128,128,128);stroke-opacity: 1.0;stroke-linecap: square;stroke-miterlimit: 10;shape-rendering:crispEdges;" clip-path="url(#_26427566114591clip-0)"/><line x1="693.72" y1="827" x2="693.72" y2="829" style="stroke-width: 0.5;stroke: rgb(128,128,128);stroke-opacity: 1.0;stroke-linecap: square;stroke-miterlimit: 10;shape-rendering:crispEdges;" clip-path="url(#_26427566114591clip-0)"/><line x1="798.53" y1="827" x2="798.53" y2="827" style="stroke-width: 0.5;stroke: rgb(128,128,128);stroke-opacity: 1.0;stroke-linecap: square;stroke-miterlimit: 10;shape-rendering:crispEdges;" clip-path="url(#_26427566114591clip-0)"/><line x1="798.53" y1="827" x2="798.53" y2="829" style="stroke-width: 0.5;stroke: rgb(128,128,128);stroke-opacity: 1.0;stroke-linecap: square;stroke-miterlimit: 10;shape-rendering:crispEdges;" clip-path="url(#_26427566114591clip-0)"/><line x1="903.34" y1="827" x2="903.34" y2="827" style="stroke-width: 0.5;stroke: rgb(128,128,128);stroke-opacity: 1.0;stroke-linecap: square;stroke-miterlimit: 10;shape-rendering:crispEdges;" clip-path="url(#_26427566114591clip-0)"/><line x1="903.34" y1="827" x2="903.34" y2="829" style="stroke-width: 0.5;stroke: rgb(128,128,128);stroke-opacity: 1.0;stroke-linecap: square;stroke-miterlimit: 10;shape-rendering:crispEdges;" clip-path="url(#_26427566114591clip-0)"/><g ><text x="135.16" y="844.14" style="fill: rgb(64,64,64); fill-opacity: 1.0; font-family: sans-serif; font-size: 12px;" clip-path="url(#_26427566114591clip-0)">28.02.2022</text></g><g ><text x="239.97" y="844.14" style="fill: rgb(64,64,64); fill-opacity: 1.0; font-family: sans-serif; font-size: 12px;" clip-path="url(#_26427566114591clip-0)">25.02.2022</text></g><g ><text x="344.78" y="844.14" style="fill: rgb(64,64,64); fill-opacity: 1.0; font-family: sans-serif; font-size: 12px;" clip-path="url(#_26427566114591clip-0)">24.02.2022</text></g><g ><text x="449.59" y="844.14" style="fill: rgb(64,64,64); fill-opacity: 1.0; font-family: sans-serif; font-size: 12px;" clip-path="url(#_26427566114591clip-0)">23.02.2022</text></g><g ><text x="554.41" y="844.14" style="fill: rgb(64,64,64); fill-opacity: 1.0; font-family: sans-serif; font-size: 12px;" clip-path="url(#_26427566114591clip-0)">04.03.2022</text></g><g ><text x="659.22" y="844.14" style="fill: rgb(64,64,64); fill-opacity: 1.0; font-family: sans-serif; font-size: 12px;" clip-path="url(#_26427566114591clip-0)">03.03.2022</text></g><g ><text x="764.03" y="844.14" style="fill: rgb(64,64,64); fill-opacity: 1.0; font-family: sans-serif; font-size: 12px;" clip-path="url(#_26427566114591clip-0)">02.03.2022</text></g><g ><text x="868.84" y="844.14" style="fill: rgb(64,64,64); fill-opacity: 1.0; font-family: sans-serif; font-size: 12px;" clip-path="url(#_26427566114591clip-0)">01.03.2022</text></g><g ><text x="518" y="868.7" style="fill: rgb(64,64,64); fill-opacity: 1.0; font-family: sans-serif; font-size: 14px; font-weight: bold;" clip-path="url(#_26427566114591clip-0)">Date</text></g><line x1="81" y1="34" x2="81" y2="823" style="stroke-width: 0.5;stroke: rgb(128,128,128);stroke-opacity: 1.0;stroke-linecap: square;stroke-miterlimit: 10;shape-rendering:crispEdges;" clip-path="url(#_26427566114591clip-0)"/><g ><text x="67" y="827.67" style="fill: rgb(64,64,64); fill-opacity: 1.0; font-family: sans-serif; font-size: 12px;" clip-path="url(#_26427566114591clip-0)">0</text></g><line x1="79" y1="823" x2="81" y2="823" style="stroke-width: 0.5;stroke: rgb(128,128,128);stroke-opacity: 1.0;stroke-linecap: square;stroke-miterlimit: 10;shape-rendering:crispEdges;" clip-path="url(#_26427566114591clip-0)"/><g ><text x="41" y="797.76" style="fill: rgb(64,64,64); fill-opacity: 1.0; font-family: sans-serif; font-size: 12px;" clip-path="url(#_26427566114591clip-0)">2 000</text></g><line x1="79" y1="793.09" x2="81" y2="793.09" style="stroke-width: 0.5;stroke: rgb(128,128,128);stroke-opacity: 1.0;stroke-linecap: square;stroke-miterlimit: 10;shape-rendering:crispEdges;" clip-path="url(#_26427566114591clip-0)"/><g ><text x="41" y="767.85" style="fill: rgb(64,64,64); fill-opacity: 1.0; font-family: sans-serif; font-size: 12px;" clip-path="url(#_26427566114591clip-0)">4 000</text></g><line x1="79" y1="763.18" x2="81" y2="763.18" style="stroke-width: 0.5;stroke: rgb(128,128,128);stroke-opacity: 1.0;stroke-linecap: square;stroke-miterlimit: 10;shape-rendering:crispEdges;" clip-path="url(#_26427566114591clip-0)"/><g ><text x="41" y="737.94" style="fill: rgb(64,64,64); fill-opacity: 1.0; font-family: sans-serif; font-size: 12px;" clip-path="url(#_26427566114591clip-0)">6 000</text></g><line x1="79" y1="733.27" x2="81" y2="733.27" style="stroke-width: 0.5;stroke: rgb(128,128,128);stroke-opacity: 1.0;stroke-linecap: square;stroke-miterlimit: 10;shape-rendering:crispEdges;" clip-path="url(#_26427566114591clip-0)"/><g ><text x="41" y="708.03" style="fill: rgb(64,64,64); fill-opacity: 1.0; font-family: sans-serif; font-size: 12px;" clip-path="url(#_26427566114591clip-0)">8 000</text></g><line x1="79" y1="703.36" x2="81" y2="703.36" style="stroke-width: 0.5;stroke: rgb(128,128,128);stroke-opacity: 1.0;stroke-linecap: square;stroke-miterlimit: 10;shape-rendering:crispEdges;" clip-path="url(#_26427566114591clip-0)"/><g ><text x="33" y="678.12" style="fill: rgb(64,64,64); fill-opacity: 1.0; font-family: sans-serif; font-size: 12px;" clip-path="url(#_26427566114591clip-0)">10 000</text></g><line x1="79" y1="673.45" x2="81" y2="673.45" style="stroke-width: 0.5;stroke: rgb(128,128,128);stroke-opacity: 1.0;stroke-linecap: square;stroke-miterlimit: 10;shape-rendering:crispEdges;" clip-path="url(#_26427566114591clip-0)"/><g ><text x="33" y="648.21" style="fill: rgb(64,64,64); fill-opacity: 1.0; font-family: sans-serif; font-size: 12px;" clip-path="url(#_26427566114591clip-0)">12 000</text></g><line x1="79" y1="643.54" x2="81" y2="643.54" style="stroke-width: 0.5;stroke: rgb(128,128,128);stroke-opacity: 1.0;stroke-linecap: square;stroke-miterlimit: 10;shape-rendering:crispEdges;" clip-path="url(#_26427566114591clip-0)"/><g ><text x="33" y="618.3" style="fill: rgb(64,64,64); fill-opacity: 1.0; font-family: sans-serif; font-size: 12px;" clip-path="url(#_26427566114591clip-0)">14 000</text></g><line x1="79" y1="613.63" x2="81" y2="613.63" style="stroke-width: 0.5;stroke: rgb(128,128,128);stroke-opacity: 1.0;stroke-linecap: square;stroke-miterlimit: 10;shape-rendering:crispEdges;" clip-path="url(#_26427566114591clip-0)"/><g ><text x="33" y="588.39" style="fill: rgb(64,64,64); fill-opacity: 1.0; font-family: sans-serif; font-size: 12px;" clip-path="url(#_26427566114591clip-0)">16 000</text></g><line x1="79" y1="583.72" x2="81" y2="583.72" style="stroke-width: 0.5;stroke: rgb(128,128,128);stroke-opacity: 1.0;stroke-linecap: square;stroke-miterlimit: 10;shape-rendering:crispEdges;" clip-path="url(#_26427566114591clip-0)"/><g ><text x="33" y="558.48" style="fill: rgb(64,64,64); fill-opacity: 1.0; font-family: sans-serif; font-size: 12px;" clip-path="url(#_26427566114591clip-0)">18 000</text></g><line x1="79" y1="553.81" x2="81" y2="553.81" style="stroke-width: 0.5;stroke: rgb(128,128,128);stroke-opacity: 1.0;stroke-linecap: square;stroke-miterlimit: 10;shape-rendering:crispEdges;" clip-path="url(#_26427566114591clip-0)"/><g ><text x="33" y="528.57" style="fill: rgb(64,64,64); fill-opacity: 1.0; font-family: sans-serif; font-size: 12px;" clip-path="url(#_26427566114591clip-0)">20 000</text></g><line x1="79" y1="523.9" x2="81" y2="523.9" style="stroke-width: 0.5;stroke: rgb(128,128,128);stroke-opacity: 1.0;stroke-linecap: square;stroke-miterlimit: 10;shape-rendering:crispEdges;" clip-path="url(#_26427566114591clip-0)"/><g ><text x="33" y="498.65" style="fill: rgb(64,64,64); fill-opacity: 1.0; font-family: sans-serif; font-size: 12px;" clip-path="url(#_26427566114591clip-0)">22 000</text></g><line x1="79" y1="493.98" x2="81" y2="493.98" style="stroke-width: 0.5;stroke: rgb(128,128,128);stroke-opacity: 1.0;stroke-linecap: square;stroke-miterlimit: 10;shape-rendering:crispEdges;" clip-path="url(#_26427566114591clip-0)"/><g ><text x="33" y="468.74" style="fill: rgb(64,64,64); fill-opacity: 1.0; font-family: sans-serif; font-size: 12px;" clip-path="url(#_26427566114591clip-0)">24 000</text></g><line x1="79" y1="464.07" x2="81" y2="464.07" style="stroke-width: 0.5;stroke: rgb(128,128,128);stroke-opacity: 1.0;stroke-linecap: square;stroke-miterlimit: 10;shape-rendering:crispEdges;" clip-path="url(#_26427566114591clip-0)"/><g ><text x="33" y="438.83" style="fill: rgb(64,64,64); fill-opacity: 1.0; font-family: sans-serif; font-size: 12px;" clip-path="url(#_26427566114591clip-0)">26 000</text></g><line x1="79" y1="434.16" x2="81" y2="434.16" style="stroke-width: 0.5;stroke: rgb(128,128,128);stroke-opacity: 1.0;stroke-linecap: square;stroke-miterlimit: 10;shape-rendering:crispEdges;" clip-path="url(#_26427566114591clip-0)"/><g ><text x="33" y="408.92" style="fill: rgb(64,64,64); fill-opacity: 1.0; font-family: sans-serif; font-size: 12px;" clip-path="url(#_26427566114591clip-0)">28 000</text></g><line x1="79" y1="404.25" x2="81" y2="404.25" style="stroke-width: 0.5;stroke: rgb(128,128,128);stroke-opacity: 1.0;stroke-linecap: square;stroke-miterlimit: 10;shape-rendering:crispEdges;" clip-path="url(#_26427566114591clip-0)"/><g ><text x="33" y="379.01" style="fill: rgb(64,64,64); fill-opacity: 1.0; font-family: sans-serif; font-size: 12px;" clip-path="url(#_26427566114591clip-0)">30 000</text></g><line x1="79" y1="374.34" x2="81" y2="374.34" style="stroke-width: 0.5;stroke: rgb(128,128,128);stroke-opacity: 1.0;stroke-linecap: square;stroke-miterlimit: 10;shape-rendering:crispEdges;" clip-path="url(#_26427566114591clip-0)"/><g ><text x="33" y="349.1" style="fill: rgb(64,64,64); fill-opacity: 1.0; font-family: sans-serif; font-size: 12px;" clip-path="url(#_26427566114591clip-0)">32 000</text></g><line x1="79" y1="344.43" x2="81" y2="344.43" style="stroke-width: 0.5;stroke: rgb(128,128,128);stroke-opacity: 1.0;stroke-linecap: square;stroke-miterlimit: 10;shape-rendering:crispEdges;" clip-path="url(#_26427566114591clip-0)"/><g ><text x="33" y="319.19" style="fill: rgb(64,64,64); fill-opacity: 1.0; font-family: sans-serif; font-size: 12px;" clip-path="url(#_26427566114591clip-0)">34 000</text></g><line x1="79" y1="314.52" x2="81" y2="314.52" style="stroke-width: 0.5;stroke: rgb(128,128,128);stroke-opacity: 1.0;stroke-linecap: square;stroke-miterlimit: 10;shape-rendering:crispEdges;" clip-path="url(#_26427566114591clip-0)"/><g ><text x="33" y="289.28" style="fill: rgb(64,64,64); fill-opacity: 1.0; font-family: sans-serif; font-size: 12px;" clip-path="url(#_26427566114591clip-0)">36 000</text></g><line x1="79" y1="284.61" x2="81" y2="284.61" style="stroke-width: 0.5;stroke: rgb(128,128,128);stroke-opacity: 1.0;stroke-linecap: square;stroke-miterlimit: 10;shape-rendering:crispEdges;" clip-path="url(#_26427566114591clip-0)"/><g ><text x="33" y="259.37" style="fill: rgb(64,64,64); fill-opacity: 1.0; font-family: sans-serif; font-size: 12px;" clip-path="url(#_26427566114591clip-0)">38 000</text></g><line x1="79" y1="254.7" x2="81" y2="254.7" style="stroke-width: 0.5;stroke: rgb(128,128,128);stroke-opacity: 1.0;stroke-linecap: square;stroke-miterlimit: 10;shape-rendering:crispEdges;" clip-path="url(#_26427566114591clip-0)"/><g ><text x="33" y="229.46" style="fill: rgb(64,64,64); fill-opacity: 1.0; font-family: sans-serif; font-size: 12px;" clip-path="url(#_26427566114591clip-0)">40 000</text></g><line x1="79" y1="224.79" x2="81" y2="224.79" style="stroke-width: 0.5;stroke: rgb(128,128,128);stroke-opacity: 1.0;stroke-linecap: square;stroke-miterlimit: 10;shape-rendering:crispEdges;" clip-path="url(#_26427566114591clip-0)"/><g ><text x="33" y="199.55" style="fill: rgb(64,64,64); fill-opacity: 1.0; font-family: sans-serif; font-size: 12px;" clip-path="url(#_26427566114591clip-0)">42 000</text></g><line x1="79" y1="194.88" x2="81" y2="194.88" style="stroke-width: 0.5;stroke: rgb(128,128,128);stroke-opacity: 1.0;stroke-linecap: square;stroke-miterlimit: 10;shape-rendering:crispEdges;" clip-path="url(#_26427566114591clip-0)"/><g ><text x="33" y="169.64" style="fill: rgb(64,64,64); fill-opacity: 1.0; font-family: sans-serif; font-size: 12px;" clip-path="url(#_26427566114591clip-0)">44 000</text></g><line x1="79" y1="164.97" x2="81" y2="164.97" style="stroke-width: 0.5;stroke: rgb(128,128,128);stroke-opacity: 1.0;stroke-linecap: square;stroke-miterlimit: 10;shape-rendering:crispEdges;" clip-path="url(#_26427566114591clip-0)"/><g ><text x="33" y="139.73" style="fill: rgb(64,64,64); fill-opacity: 1.0; font-family: sans-serif; font-size: 12px;" clip-path="url(#_26427566114591clip-0)">46 000</text></g><line x1="79" y1="135.06" x2="81" y2="135.06" style="stroke-width: 0.5;stroke: rgb(128,128,128);stroke-opacity: 1.0;stroke-linecap: square;stroke-miterlimit: 10;shape-rendering:crispEdges;" clip-path="url(#_26427566114591clip-0)"/><g ><text x="33" y="109.82" style="fill: rgb(64,64,64); fill-opacity: 1.0; font-family: sans-serif; font-size: 12px;" clip-path="url(#_26427566114591clip-0)">48 000</text></g><line x1="79" y1="105.15" x2="81" y2="105.15" style="stroke-width: 0.5;stroke: rgb(128,128,128);stroke-opacity: 1.0;stroke-linecap: square;stroke-miterlimit: 10;shape-rendering:crispEdges;" clip-path="url(#_26427566114591clip-0)"/><g ><text x="33" y="79.91" style="fill: rgb(64,64,64); fill-opacity: 1.0; font-family: sans-serif; font-size: 12px;" clip-path="url(#_26427566114591clip-0)">50 000</text></g><line x1="79" y1="75.24" x2="81" y2="75.24" style="stroke-width: 0.5;stroke: rgb(128,128,128);stroke-opacity: 1.0;stroke-linecap: square;stroke-miterlimit: 10;shape-rendering:crispEdges;" clip-path="url(#_26427566114591clip-0)"/><g ><text x="33" y="50" style="fill: rgb(64,64,64); fill-opacity: 1.0; font-family: sans-serif; font-size: 12px;" clip-path="url(#_26427566114591clip-0)">52 000</text></g><line x1="79" y1="45.33" x2="81" y2="45.33" style="stroke-width: 0.5;stroke: rgb(128,128,128);stroke-opacity: 1.0;stroke-linecap: square;stroke-miterlimit: 10;shape-rendering:crispEdges;" clip-path="url(#_26427566114591clip-0)"/><g style="fill: rgb(64,64,64); fill-opacity: 1.0; stroke: none" transform="matrix(0,-1,1,0,-409,448)" clip-path="url(#_26427566114591clip-1)"><path d="M -45.61 427.17 L -45.61 423.06 L -43.16 423.06 L -43.16 433.7 L -45.61 433.7 L -45.61 432.59 Q -46.12 433.26 -46.73 433.59 Q -47.34 433.9 -48.14 433.9 Q -49.55 433.9 -50.47 432.78 Q -51.38 431.65 -51.38 429.87 Q -51.38 428.1 -50.47 426.98 Q -49.55 425.85 -48.14 425.85 Q -47.34 425.85 -46.73 426.18 Q -46.12 426.5 -45.61 427.17 Z  M -47.23 432.12 Q -46.44 432.12 -46.03 431.54 Q -45.61 430.96 -45.61 429.87 Q -45.61 428.78 -46.03 428.21 Q -46.44 427.64 -47.23 427.64 Q -48 427.64 -48.42 428.21 Q -48.83 428.78 -48.83 429.87 Q -48.83 430.96 -48.42 431.54 Q -48 432.12 -47.23 432.12 Z  M -40.81 426.04 L -38.35 426.04 L -38.35 433.7 L -40.81 433.7 L -40.81 426.04 Z  M -40.81 423.06 L -38.35 423.06 L -38.35 425.06 L -40.81 425.06 L -40.81 423.06 Z  M -30.96 423.06 L -30.96 424.67 L -32.32 424.67 Q -32.84 424.67 -33.04 424.85 Q -33.24 425.04 -33.24 425.51 L -33.24 426.04 L -31.16 426.04 L -31.16 427.79 L -33.24 427.79 L -33.24 433.7 L -35.7 433.7 L -35.7 427.79 L -36.91 427.79 L -36.91 426.04 L -35.7 426.04 L -35.7 425.51 Q -35.7 424.26 -35.01 423.67 Q -34.3 423.06 -32.84 423.06 L -30.96 423.06 Z  M -24.87 423.06 L -24.87 424.67 L -26.23 424.67 Q -26.75 424.67 -26.95 424.85 Q -27.15 425.04 -27.15 425.51 L -27.15 426.04 L -25.07 426.04 L -25.07 427.79 L -27.15 427.79 L -27.15 433.7 L -29.6 433.7 L -29.6 427.79 L -30.82 427.79 L -30.82 426.04 L -29.6 426.04 L -29.6 425.51 Q -29.6 424.26 -28.92 423.67 Q -28.21 423.06 -26.75 423.06 L -24.87 423.06 Z  M -16.19 429.85 L -16.19 430.54 L -21.9 430.54 Q -21.81 431.4 -21.28 431.84 Q -20.75 432.28 -19.79 432.28 Q -19.01 432.28 -18.2 432.04 Q -17.39 431.81 -16.54 431.34 L -16.54 433.23 Q -17.4 433.56 -18.28 433.73 Q -19.14 433.9 -20.01 433.9 Q -22.09 433.9 -23.25 432.84 Q -24.39 431.78 -24.39 429.87 Q -24.39 428.01 -23.26 426.93 Q -22.14 425.85 -20.15 425.85 Q -18.34 425.85 -17.26 426.95 Q -16.19 428.03 -16.19 429.85 Z  M -18.7 429.04 Q -18.7 428.34 -19.11 427.92 Q -19.51 427.48 -20.17 427.48 Q -20.87 427.48 -21.33 427.89 Q -21.76 428.28 -21.87 429.04 L -18.7 429.04 Z  M -8.64 428.12 Q -8.96 427.98 -9.28 427.92 Q -9.6 427.84 -9.92 427.84 Q -10.86 427.84 -11.38 428.45 Q -11.88 429.04 -11.88 430.17 L -11.88 433.7 L -14.33 433.7 L -14.33 426.04 L -11.88 426.04 L -11.88 427.29 Q -11.41 426.54 -10.8 426.2 Q -10.19 425.85 -9.33 425.85 Q -9.21 425.85 -9.07 425.87 Q -8.92 425.87 -8.64 425.92 L -8.64 428.12 Z  M 0.21 429.85 L 0.21 430.54 L -5.5 430.54 Q -5.41 431.4 -4.88 431.84 Q -4.35 432.28 -3.4 432.28 Q -2.61 432.28 -1.8 432.04 Q -0.99 431.81 -0.15 431.34 L -0.15 433.23 Q -1 433.56 -1.88 433.73 Q -2.74 433.9 -3.61 433.9 Q -5.69 433.9 -6.85 432.84 Q -7.99 431.78 -7.99 429.87 Q -7.99 428.01 -6.86 426.93 Q -5.74 425.85 -3.75 425.85 Q -1.94 425.85 -0.86 426.95 Q 0.21 428.03 0.21 429.85 Z  M -2.3 429.04 Q -2.3 428.34 -2.71 427.92 Q -3.11 427.48 -3.77 427.48 Q -4.47 427.48 -4.93 427.89 Q -5.36 428.28 -5.47 429.04 L -2.3 429.04 Z  M 9.77 429.04 L 9.77 433.7 L 7.3 433.7 L 7.3 432.93 L 7.3 430.14 Q 7.3 429.14 7.26 428.76 Q 7.22 428.39 7.12 428.21 Q 6.97 427.96 6.72 427.84 Q 6.47 427.7 6.16 427.7 Q 5.4 427.7 4.96 428.29 Q 4.52 428.89 4.52 429.93 L 4.52 433.7 L 2.07 433.7 L 2.07 426.04 L 4.52 426.04 L 4.52 427.17 Q 5.07 426.5 5.69 426.18 Q 6.32 425.85 7.07 425.85 Q 8.4 425.85 9.08 426.67 Q 9.77 427.48 9.77 429.04 Z  M 14.71 423.87 L 14.71 426.04 L 17.24 426.04 L 17.24 427.79 L 14.71 427.79 L 14.71 431.04 Q 14.71 431.57 14.91 431.76 Q 15.13 431.95 15.77 431.95 L 17.02 431.95 L 17.02 433.7 L 14.93 433.7 Q 13.47 433.7 12.86 433.1 Q 12.27 432.5 12.27 431.04 L 12.27 427.79 L 11.05 427.79 L 11.05 426.04 L 12.27 426.04 L 12.27 423.87 L 14.71 423.87 Z  M 29.79 426.28 L 29.79 428.28 Q 29.29 427.93 28.79 427.78 Q 28.29 427.6 27.74 427.6 Q 26.73 427.6 26.15 428.21 Q 25.59 428.81 25.59 429.87 Q 25.59 430.95 26.15 431.56 Q 26.73 432.15 27.74 432.15 Q 28.32 432.15 28.84 431.98 Q 29.35 431.81 29.79 431.46 L 29.79 433.48 Q 29.21 433.68 28.62 433.79 Q 28.04 433.9 27.45 433.9 Q 25.37 433.9 24.2 432.84 Q 23.04 431.78 23.04 429.87 Q 23.04 427.98 24.2 426.92 Q 25.37 425.85 27.45 425.85 Q 28.04 425.85 28.62 425.96 Q 29.21 426.07 29.79 426.28 Z  M 31.82 430.71 L 31.82 426.04 L 34.29 426.04 L 34.29 426.81 Q 34.29 427.43 34.28 428.37 Q 34.28 429.31 34.28 429.62 Q 34.28 430.54 34.32 430.95 Q 34.37 431.35 34.48 431.54 Q 34.63 431.78 34.87 431.92 Q 35.12 432.04 35.43 432.04 Q 36.2 432.04 36.63 431.46 Q 37.07 430.87 37.07 429.82 L 37.07 426.04 L 39.53 426.04 L 39.53 433.7 L 37.07 433.7 L 37.07 432.59 Q 36.53 433.26 35.9 433.59 Q 35.28 433.9 34.54 433.9 Q 33.21 433.9 32.51 433.09 Q 31.82 432.28 31.82 430.71 Z  M 47.55 428.12 Q 47.24 427.98 46.91 427.92 Q 46.6 427.84 46.27 427.84 Q 45.34 427.84 44.82 428.45 Q 44.32 429.04 44.32 430.17 L 44.32 433.7 L 41.87 433.7 L 41.87 426.04 L 44.32 426.04 L 44.32 427.29 Q 44.79 426.54 45.4 426.2 Q 46.01 425.85 46.87 425.85 Q 46.99 425.85 47.13 425.87 Q 47.27 425.87 47.55 425.92 L 47.55 428.12 Z  M 54.46 428.12 Q 54.15 427.98 53.82 427.92 Q 53.51 427.84 53.18 427.84 Q 52.24 427.84 51.72 428.45 Q 51.22 429.04 51.22 430.17 L 51.22 433.7 L 48.77 433.7 L 48.77 426.04 L 51.22 426.04 L 51.22 427.29 Q 51.69 426.54 52.3 426.2 Q 52.91 425.85 53.77 425.85 Q 53.9 425.85 54.04 425.87 Q 54.18 425.87 54.46 425.92 L 54.46 428.12 Z  M 63.32 429.85 L 63.32 430.54 L 57.6 430.54 Q 57.69 431.4 58.22 431.84 Q 58.75 432.28 59.71 432.28 Q 60.49 432.28 61.3 432.04 Q 62.11 431.81 62.96 431.34 L 62.96 433.23 Q 62.1 433.56 61.22 433.73 Q 60.36 433.9 59.49 433.9 Q 57.41 433.9 56.25 432.84 Q 55.11 431.78 55.11 429.87 Q 55.11 428.01 56.24 426.93 Q 57.36 425.85 59.35 425.85 Q 61.16 425.85 62.24 426.95 Q 63.32 428.03 63.32 429.85 Z  M 60.8 429.04 Q 60.8 428.34 60.39 427.92 Q 59.99 427.48 59.33 427.48 Q 58.63 427.48 58.18 427.89 Q 57.74 428.28 57.63 429.04 L 60.8 429.04 Z  M 72.87 429.04 L 72.87 433.7 L 70.41 433.7 L 70.41 432.93 L 70.41 430.14 Q 70.41 429.14 70.36 428.76 Q 70.33 428.39 70.22 428.21 Q 70.08 427.96 69.83 427.84 Q 69.58 427.7 69.26 427.7 Q 68.5 427.7 68.06 428.29 Q 67.62 428.89 67.62 429.93 L 67.62 433.7 L 65.17 433.7 L 65.17 426.04 L 67.62 426.04 L 67.62 427.17 Q 68.17 426.5 68.8 426.18 Q 69.42 425.85 70.17 425.85 Q 71.5 425.85 72.19 426.67 Q 72.87 427.48 72.87 429.04 Z  M 81.33 426.28 L 81.33 428.28 Q 80.83 427.93 80.33 427.78 Q 79.83 427.6 79.28 427.6 Q 78.26 427.6 77.68 428.21 Q 77.12 428.81 77.12 429.87 Q 77.12 430.95 77.68 431.56 Q 78.26 432.15 79.28 432.15 Q 79.86 432.15 80.37 431.98 Q 80.89 431.81 81.33 431.46 L 81.33 433.48 Q 80.75 433.68 80.15 433.79 Q 79.58 433.9 78.98 433.9 Q 76.9 433.9 75.73 432.84 Q 74.58 431.78 74.58 429.87 Q 74.58 427.98 75.73 426.92 Q 76.9 425.85 78.98 425.85 Q 79.58 425.85 80.15 425.96 Q 80.75 426.07 81.33 426.28 Z  M 82.44 426.04 L 84.89 426.04 L 86.94 431.23 L 88.69 426.04 L 91.14 426.04 L 87.92 434.42 Q 87.44 435.7 86.78 436.2 Q 86.14 436.71 85.08 436.71 L 83.67 436.71 L 83.67 435.12 L 84.44 435.12 Q 85.06 435.12 85.34 434.92 Q 85.62 434.71 85.78 434.2 L 85.84 434 L 82.44 426.04 Z "/></g><line x1="85" y1="823" x2="988" y2="823" style="stroke-width: 0.5;stroke: rgb(255,255,255);stroke-opacity: 1.0;stroke-linejoin: bevel;stroke-miterlimit: 0;stroke-dasharray: 2.0, 2.0;shape-rendering:crispEdges;" clip-path="url(#_26427566114591clip-2)"/><line x1="85" y1="793.09" x2="988" y2="793.09" style="stroke-width: 0.5;stroke: rgb(255,255,255);stroke-opacity: 1.0;stroke-linejoin: bevel;stroke-miterlimit: 0;stroke-dasharray: 2.0, 2.0;shape-rendering:crispEdges;" clip-path="url(#_26427566114591clip-2)"/><line x1="85" y1="763.18" x2="988" y2="763.18" style="stroke-width: 0.5;stroke: rgb(255,255,255);stroke-opacity: 1.0;stroke-linejoin: bevel;stroke-miterlimit: 0;stroke-dasharray: 2.0, 2.0;shape-rendering:crispEdges;" clip-path="url(#_26427566114591clip-2)"/><line x1="85" y1="733.27" x2="988" y2="733.27" style="stroke-width: 0.5;stroke: rgb(255,255,255);stroke-opacity: 1.0;stroke-linejoin: bevel;stroke-miterlimit: 0;stroke-dasharray: 2.0, 2.0;shape-rendering:crispEdges;" clip-path="url(#_26427566114591clip-2)"/><line x1="85" y1="703.36" x2="988" y2="703.36" style="stroke-width: 0.5;stroke: rgb(255,255,255);stroke-opacity: 1.0;stroke-linejoin: bevel;stroke-miterlimit: 0;stroke-dasharray: 2.0, 2.0;shape-rendering:crispEdges;" clip-path="url(#_26427566114591clip-2)"/><line x1="85" y1="673.45" x2="988" y2="673.45" style="stroke-width: 0.5;stroke: rgb(255,255,255);stroke-opacity: 1.0;stroke-linejoin: bevel;stroke-miterlimit: 0;stroke-dasharray: 2.0, 2.0;shape-rendering:crispEdges;" clip-path="url(#_26427566114591clip-2)"/><line x1="85" y1="643.54" x2="988" y2="643.54" style="stroke-width: 0.5;stroke: rgb(255,255,255);stroke-opacity: 1.0;stroke-linejoin: bevel;stroke-miterlimit: 0;stroke-dasharray: 2.0, 2.0;shape-rendering:crispEdges;" clip-path="url(#_26427566114591clip-2)"/><line x1="85" y1="613.63" x2="988" y2="613.63" style="stroke-width: 0.5;stroke: rgb(255,255,255);stroke-opacity: 1.0;stroke-linejoin: bevel;stroke-miterlimit: 0;stroke-dasharray: 2.0, 2.0;shape-rendering:crispEdges;" clip-path="url(#_26427566114591clip-2)"/><line x1="85" y1="583.72" x2="988" y2="583.72" style="stroke-width: 0.5;stroke: rgb(255,255,255);stroke-opacity: 1.0;stroke-linejoin: bevel;stroke-miterlimit: 0;stroke-dasharray: 2.0, 2.0;shape-rendering:crispEdges;" clip-path="url(#_26427566114591clip-2)"/><line x1="85" y1="553.81" x2="988" y2="553.81" style="stroke-width: 0.5;stroke: rgb(255,255,255);stroke-opacity: 1.0;stroke-linejoin: bevel;stroke-miterlimit: 0;stroke-dasharray: 2.0, 2.0;shape-rendering:crispEdges;" clip-path="url(#_26427566114591clip-2)"/><line x1="85" y1="523.9" x2="988" y2="523.9" style="stroke-width: 0.5;stroke: rgb(255,255,255);stroke-opacity: 1.0;stroke-linejoin: bevel;stroke-miterlimit: 0;stroke-dasharray: 2.0, 2.0;shape-rendering:crispEdges;" clip-path="url(#_26427566114591clip-2)"/><line x1="85" y1="493.98" x2="988" y2="493.98" style="stroke-width: 0.5;stroke: rgb(255,255,255);stroke-opacity: 1.0;stroke-linejoin: bevel;stroke-miterlimit: 0;stroke-dasharray: 2.0, 2.0;shape-rendering:crispEdges;" clip-path="url(#_26427566114591clip-2)"/><line x1="85" y1="464.07" x2="988" y2="464.07" style="stroke-width: 0.5;stroke: rgb(255,255,255);stroke-opacity: 1.0;stroke-linejoin: bevel;stroke-miterlimit: 0;stroke-dasharray: 2.0, 2.0;shape-rendering:crispEdges;" clip-path="url(#_26427566114591clip-2)"/><line x1="85" y1="434.16" x2="988" y2="434.16" style="stroke-width: 0.5;stroke: rgb(255,255,255);stroke-opacity: 1.0;stroke-linejoin: bevel;stroke-miterlimit: 0;stroke-dasharray: 2.0, 2.0;shape-rendering:crispEdges;" clip-path="url(#_26427566114591clip-2)"/><line x1="85" y1="404.25" x2="988" y2="404.25" style="stroke-width: 0.5;stroke: rgb(255,255,255);stroke-opacity: 1.0;stroke-linejoin: bevel;stroke-miterlimit: 0;stroke-dasharray: 2.0, 2.0;shape-rendering:crispEdges;" clip-path="url(#_26427566114591clip-2)"/><line x1="85" y1="374.34" x2="988" y2="374.34" style="stroke-width: 0.5;stroke: rgb(255,255,255);stroke-opacity: 1.0;stroke-linejoin: bevel;stroke-miterlimit: 0;stroke-dasharray: 2.0, 2.0;shape-rendering:crispEdges;" clip-path="url(#_26427566114591clip-2)"/><line x1="85" y1="344.43" x2="988" y2="344.43" style="stroke-width: 0.5;stroke: rgb(255,255,255);stroke-opacity: 1.0;stroke-linejoin: bevel;stroke-miterlimit: 0;stroke-dasharray: 2.0, 2.0;shape-rendering:crispEdges;" clip-path="url(#_26427566114591clip-2)"/><line x1="85" y1="314.52" x2="988" y2="314.52" style="stroke-width: 0.5;stroke: rgb(255,255,255);stroke-opacity: 1.0;stroke-linejoin: bevel;stroke-miterlimit: 0;stroke-dasharray: 2.0, 2.0;shape-rendering:crispEdges;" clip-path="url(#_26427566114591clip-2)"/><line x1="85" y1="284.61" x2="988" y2="284.61" style="stroke-width: 0.5;stroke: rgb(255,255,255);stroke-opacity: 1.0;stroke-linejoin: bevel;stroke-miterlimit: 0;stroke-dasharray: 2.0, 2.0;shape-rendering:crispEdges;" clip-path="url(#_26427566114591clip-2)"/><line x1="85" y1="254.7" x2="988" y2="254.7" style="stroke-width: 0.5;stroke: rgb(255,255,255);stroke-opacity: 1.0;stroke-linejoin: bevel;stroke-miterlimit: 0;stroke-dasharray: 2.0, 2.0;shape-rendering:crispEdges;" clip-path="url(#_26427566114591clip-2)"/><line x1="85" y1="224.79" x2="988" y2="224.79" style="stroke-width: 0.5;stroke: rgb(255,255,255);stroke-opacity: 1.0;stroke-linejoin: bevel;stroke-miterlimit: 0;stroke-dasharray: 2.0, 2.0;shape-rendering:crispEdges;" clip-path="url(#_26427566114591clip-2)"/><line x1="85" y1="194.88" x2="988" y2="194.88" style="stroke-width: 0.5;stroke: rgb(255,255,255);stroke-opacity: 1.0;stroke-linejoin: bevel;stroke-miterlimit: 0;stroke-dasharray: 2.0, 2.0;shape-rendering:crispEdges;" clip-path="url(#_26427566114591clip-2)"/><line x1="85" y1="164.97" x2="988" y2="164.97" style="stroke-width: 0.5;stroke: rgb(255,255,255);stroke-opacity: 1.0;stroke-linejoin: bevel;stroke-miterlimit: 0;stroke-dasharray: 2.0, 2.0;shape-rendering:crispEdges;" clip-path="url(#_26427566114591clip-2)"/><line x1="85" y1="135.06" x2="988" y2="135.06" style="stroke-width: 0.5;stroke: rgb(255,255,255);stroke-opacity: 1.0;stroke-linejoin: bevel;stroke-miterlimit: 0;stroke-dasharray: 2.0, 2.0;shape-rendering:crispEdges;" clip-path="url(#_26427566114591clip-2)"/><line x1="85" y1="105.15" x2="988" y2="105.15" style="stroke-width: 0.5;stroke: rgb(255,255,255);stroke-opacity: 1.0;stroke-linejoin: bevel;stroke-miterlimit: 0;stroke-dasharray: 2.0, 2.0;shape-rendering:crispEdges;" clip-path="url(#_26427566114591clip-2)"/><line x1="85" y1="75.24" x2="988" y2="75.24" style="stroke-width: 0.5;stroke: rgb(255,255,255);stroke-opacity: 1.0;stroke-linejoin: bevel;stroke-miterlimit: 0;stroke-dasharray: 2.0, 2.0;shape-rendering:crispEdges;" clip-path="url(#_26427566114591clip-2)"/><line x1="85" y1="45.33" x2="988" y2="45.33" style="stroke-width: 0.5;stroke: rgb(255,255,255);stroke-opacity: 1.0;stroke-linejoin: bevel;stroke-miterlimit: 0;stroke-dasharray: 2.0, 2.0;shape-rendering:crispEdges;" clip-path="url(#_26427566114591clip-2)"/><rect x="130.15" y="816.09" width="18.81" height="6.91" style="fill: rgb(255,85,85); fill-opacity: 1.0" clip-path="url(#_26427566114591clip-2)"/><g ><text x="114.56" y="811.26" style="fill: rgb(0,0,0); fill-opacity: 1.0; font-family: sans-serif; font-size: 12px;" clip-path="url(#_26427566114591clip-2)">462,204</text></g><rect x="160.25" y="815.27" width="18.81" height="7.73" style="fill: rgb(85,85,255); fill-opacity: 1.0" clip-path="url(#_26427566114591clip-2)"/><g ><text x="144.66" y="810.44" style="fill: rgb(0,0,0); fill-opacity: 1.0; font-family: sans-serif; font-size: 12px;" clip-path="url(#_26427566114591clip-2)">517,072</text></g><rect x="190.35" y="176.32" width="18.81" height="646.68" style="fill: rgb(85,255,85); fill-opacity: 1.0" clip-path="url(#_26427566114591clip-2)"/><g ><text x="165.26" y="171.49" style="fill: rgb(0,0,0); fill-opacity: 1.0; font-family: sans-serif; font-size: 12px;" clip-path="url(#_26427566114591clip-2)">43 241,279</text></g><rect x="234.96" y="816.2" width="18.81" height="6.8" style="fill: rgb(255,85,85); fill-opacity: 1.0" clip-path="url(#_26427566114591clip-2)"/><g ><text x="219.37" y="811.37" style="fill: rgb(0,0,0); fill-opacity: 1.0; font-family: sans-serif; font-size: 12px;" clip-path="url(#_26427566114591clip-2)">454,809</text></g><rect x="265.06" y="815.37" width="18.81" height="7.63" style="fill: rgb(85,85,255); fill-opacity: 1.0" clip-path="url(#_26427566114591clip-2)"/><g ><text x="249.47" y="810.54" style="fill: rgb(0,0,0); fill-opacity: 1.0; font-family: sans-serif; font-size: 12px;" clip-path="url(#_26427566114591clip-2)">510,048</text></g><rect x="295.16" y="164.34" width="18.81" height="658.66" style="fill: rgb(85,255,85); fill-opacity: 1.0" clip-path="url(#_26427566114591clip-2)"/><g ><text x="270.07" y="159.51" style="fill: rgb(0,0,0); fill-opacity: 1.0; font-family: sans-serif; font-size: 12px;" clip-path="url(#_26427566114591clip-2)">44 042,043</text></g><rect x="339.77" y="815.87" width="18.81" height="7.13" style="fill: rgb(255,85,85); fill-opacity: 1.0" clip-path="url(#_26427566114591clip-2)"/><g ><text x="324.18" y="811.04" style="fill: rgb(0,0,0); fill-opacity: 1.0; font-family: sans-serif; font-size: 12px;" clip-path="url(#_26427566114591clip-2)">476,528</text></g><rect x="369.88" y="814.92" width="18.81" height="8.08" style="fill: rgb(85,85,255); fill-opacity: 1.0" clip-path="url(#_26427566114591clip-2)"/><g ><text x="354.28" y="810.09" style="fill: rgb(0,0,0); fill-opacity: 1.0; font-family: sans-serif; font-size: 12px;" clip-path="url(#_26427566114591clip-2)">540,127</text></g><rect x="399.97" y="184.06" width="18.81" height="638.94" style="fill: rgb(85,255,85); fill-opacity: 1.0" clip-path="url(#_26427566114591clip-2)"/><g ><text x="374.88" y="179.23" style="fill: rgb(0,0,0); fill-opacity: 1.0; font-family: sans-serif; font-size: 12px;" clip-path="url(#_26427566114591clip-2)">42 723,419</text></g><rect x="444.59" y="815.89" width="18.81" height="7.11" style="fill: rgb(255,85,85); fill-opacity: 1.0" clip-path="url(#_26427566114591clip-2)"/><g ><text x="428.99" y="811.06" style="fill: rgb(0,0,0); fill-opacity: 1.0; font-family: sans-serif; font-size: 12px;" clip-path="url(#_26427566114591clip-2)">475,543</text></g><rect x="474.69" y="814.96" width="18.81" height="8.04" style="fill: rgb(85,85,255); fill-opacity: 1.0" clip-path="url(#_26427566114591clip-2)"/><g ><text x="459.09" y="810.13" style="fill: rgb(0,0,0); fill-opacity: 1.0; font-family: sans-serif; font-size: 12px;" clip-path="url(#_26427566114591clip-2)">537,402</text></g><rect x="504.79" y="178.27" width="18.81" height="644.73" style="fill: rgb(85,255,85); fill-opacity: 1.0" clip-path="url(#_26427566114591clip-2)"/><g ><text x="483.69" y="173.44" style="fill: rgb(0,0,0); fill-opacity: 1.0; font-family: sans-serif; font-size: 12px;" clip-path="url(#_26427566114591clip-2)">43 110,64</text></g><rect x="549.4" y="816.8" width="18.81" height="6.2" style="fill: rgb(255,85,85); fill-opacity: 1.0" clip-path="url(#_26427566114591clip-2)"/><g ><text x="533.81" y="811.97" style="fill: rgb(0,0,0); fill-opacity: 1.0; font-family: sans-serif; font-size: 12px;" clip-path="url(#_26427566114591clip-2)">414,297</text></g><rect x="579.5" y="816.11" width="18.81" height="6.89" style="fill: rgb(85,85,255); fill-opacity: 1.0" clip-path="url(#_26427566114591clip-2)"/><g ><text x="563.91" y="811.28" style="fill: rgb(0,0,0); fill-opacity: 1.0; font-family: sans-serif; font-size: 12px;" clip-path="url(#_26427566114591clip-2)">460,385</text></g><rect x="609.6" y="71.57" width="18.81" height="751.43" style="fill: rgb(85,255,85); fill-opacity: 1.0" clip-path="url(#_26427566114591clip-2)"/><g ><text x="584.51" y="66.74" style="fill: rgb(0,0,0); fill-opacity: 1.0; font-family: sans-serif; font-size: 12px;" clip-path="url(#_26427566114591clip-2)">50 245,148</text></g><rect x="654.21" y="816.82" width="18.81" height="6.18" style="fill: rgb(255,85,85); fill-opacity: 1.0" clip-path="url(#_26427566114591clip-2)"/><g ><text x="638.62" y="811.99" style="fill: rgb(0,0,0); fill-opacity: 1.0; font-family: sans-serif; font-size: 12px;" clip-path="url(#_26427566114591clip-2)">413,145</text></g><rect x="684.31" y="816.11" width="18.81" height="6.89" style="fill: rgb(85,85,255); fill-opacity: 1.0" clip-path="url(#_26427566114591clip-2)"/><g ><text x="668.72" y="811.28" style="fill: rgb(0,0,0); fill-opacity: 1.0; font-family: sans-serif; font-size: 12px;" clip-path="url(#_26427566114591clip-2)">460,682</text></g><rect x="714.41" y="109.27" width="18.81" height="713.73" style="fill: rgb(85,255,85); fill-opacity: 1.0" clip-path="url(#_26427566114591clip-2)"/><g ><text x="689.32" y="104.44" style="fill: rgb(0,0,0); fill-opacity: 1.0; font-family: sans-serif; font-size: 12px;" clip-path="url(#_26427566114591clip-2)">47 724,488</text></g><rect x="759.02" y="816.55" width="18.81" height="6.45" style="fill: rgb(255,85,85); fill-opacity: 1.0" clip-path="url(#_26427566114591clip-2)"/><g ><text x="743.43" y="811.72" style="fill: rgb(0,0,0); fill-opacity: 1.0; font-family: sans-serif; font-size: 12px;" clip-path="url(#_26427566114591clip-2)">431,119</text></g><rect x="789.12" y="815.74" width="18.81" height="7.26" style="fill: rgb(85,85,255); fill-opacity: 1.0" clip-path="url(#_26427566114591clip-2)"/><g ><text x="773.53" y="810.91" style="fill: rgb(0,0,0); fill-opacity: 1.0; font-family: sans-serif; font-size: 12px;" clip-path="url(#_26427566114591clip-2)">485,279</text></g><rect x="819.23" y="147.67" width="18.81" height="675.33" style="fill: rgb(85,255,85); fill-opacity: 1.0" clip-path="url(#_26427566114591clip-2)"/><g ><text x="794.13" y="142.84" style="fill: rgb(0,0,0); fill-opacity: 1.0; font-family: sans-serif; font-size: 12px;" clip-path="url(#_26427566114591clip-2)">45 157,032</text></g><rect x="863.84" y="816.78" width="18.81" height="6.22" style="fill: rgb(255,85,85); fill-opacity: 1.0" clip-path="url(#_26427566114591clip-2)"/><g ><text x="848.24" y="811.95" style="fill: rgb(0,0,0); fill-opacity: 1.0; font-family: sans-serif; font-size: 12px;" clip-path="url(#_26427566114591clip-2)">416,036</text></g><rect x="893.94" y="816.06" width="18.81" height="6.94" style="fill: rgb(85,85,255); fill-opacity: 1.0" clip-path="url(#_26427566114591clip-2)"/><g ><text x="878.34" y="811.23" style="fill: rgb(0,0,0); fill-opacity: 1.0; font-family: sans-serif; font-size: 12px;" clip-path="url(#_26427566114591clip-2)">464,143</text></g><rect x="924.04" y="106.87" width="18.81" height="716.13" style="fill: rgb(85,255,85); fill-opacity: 1.0" clip-path="url(#_26427566114591clip-2)"/><g ><text x="898.94" y="102.04" style="fill: rgb(0,0,0); fill-opacity: 1.0; font-family: sans-serif; font-size: 12px;" clip-path="url(#_26427566114591clip-2)">47 884,638</text></g><rect x="85" y="34" width="903" height="789" style="stroke-width: 0.5;stroke: rgb(0,0,0);stroke-opacity: 1.0;stroke-linecap: round;stroke-linejoin: round;stroke-miterlimit: 10;shape-rendering:crispEdges;; fill: none" clip-path="url(#_26427566114591clip-0)"/></svg>
