<!DOCTYPE svg PUBLIC "-//W3C//DTD SVG 1.1//EN" "http://www.w3.org/Graphics/SVG/1.1/DTD/svg11.dtd">
<svg xmlns="http://www.w3.org/2000/svg" xmlns:xlink="http://www.w3.org/1999/xlink" xmlns:jfreesvg="http://www.jfree.org/jfreesvg/svg" width="1000" height="900" text-rendering="auto" shape-rendering="auto">
<defs><clipPath id="_8305175092199clip-0"><path d="M 0 0 L 1000 0 L 1000 900 L 0 900 L 0 0 Z "/></clipPath>
<clipPath id="_8305175092199clip-1"><path d="M 448.5 409.5 L 448.5 1409.5 L -451.5 1409.5 L -451.5 409.5 L 448.5 409.5 Z "/></clipPath>
<clipPath id="_8305175092199clip-2"><path d="M 80 35 L 80 823 L 988 823 L 988 35 Z "/></clipPath>
</defs>
<rect x="0" y="0" width="1000" height="900" style="fill: rgb(255,255,255); fill-opacity: 1.0" clip-path="url(#_8305175092199clip-0)"/><g ><text x="166" y="21.01" style="fill: rgb(0,0,0); fill-opacity: 1.0; font-family: Tahoma; font-size: 20px; font-weight: bold;" clip-path="url(#_8305175092199clip-0)">Changing the price of the Harry Potter book Cost in BLR1426.9622</text></g><rect x="439.5" y="878" width="121" height="21" style="fill: rgb(255,255,255); fill-opacity: 1.0" clip-path="url(#_8305175092199clip-0)"/><g style="fill: rgb(255,85,85); fill-opacity: 1.0; stroke: none" clip-path="url(#_8305175092199clip-0)"><path d="M 442.5 884.5 L 450.5 884.5 L 450.5 892.5 L 442.5 892.5 L 442.5 884.5 Z "/></g><g ><text x="454.5" y="893.01" style="fill: rgb(64,64,64); fill-opacity: 1.0; font-family: Tahoma; font-size: 12px;" clip-path="url(#_8305175092199clip-0)">EUR</text></g><g style="fill: rgb(85,85,255); fill-opacity: 1.0; stroke: none" clip-path="url(#_8305175092199clip-0)"><path d="M 482.5 884.5 L 490.5 884.5 L 490.5 892.5 L 482.5 892.5 L 482.5 884.5 Z "/></g><g ><text x="494.5" y="893.01" style="fill: rgb(64,64,64); fill-opacity: 1.0; font-family: Tahoma; font-size: 12px;" clip-path="url(#_8305175092199clip-0)">USD</text></g><g style="fill: rgb(85,255,85); fill-opacity: 1.0; stroke: none" clip-path="url(#_8305175092199clip-0)"><path d="M 523.5 884.5 L 531.5 884.5 L 531.5 892.5 L 523.5 892.5 L 523.5 884.5 Z "/></g><g ><text x="535.5" y="893.01" style="fill: rgb(64,64,64); fill-opacity: 1.0; font-family: Tahoma; font-size: 12px;" clip-path="url(#_8305175092199clip-0)">RUB</text></g><rect x="80" y="35" width="908" height="788" style="fill: rgb(192,192,192); fill-opacity: 1.0" clip-path="url(#_8305175092199clip-0)"/><line x1="80" y1="827" x2="988" y2="827" style="stroke-width: 0.5;stroke: rgb(128,128,128);stroke-opacity: 1.0;stroke-linecap: square;stroke-miterlimit: 10;shape-rendering:crispEdges;" clip-path="url(#_8305175092199clip-0)"/><line x1="165.12" y1="827" x2="165.12" y2="827" style="stroke-width: 0.5;stroke: rgb(128,128,128);stroke-opacity: 1.0;stroke-linecap: square;stroke-miterlimit: 10;shape-rendering:crispEdges;" clip-path="url(#_8305175092199clip-0)"/><line x1="165.12" y1="827" x2="165.12" y2="829" style="stroke-width: 0.5;stroke: rgb(128,128,128);stroke-opacity: 1.0;stroke-linecap: square;stroke-miterlimit: 10;shape-rendering:crispEdges;" clip-path="url(#_8305175092199clip-0)"/><line x1="270.52" y1="827" x2="270.52" y2="827" style="stroke-width: 0.5;stroke: rgb(128,128,128);stroke-opacity: 1.0;stroke-linecap: square;stroke-miterlimit: 10;shape-rendering:crispEdges;" clip-path="url(#_8305175092199clip-0)"/><line x1="270.52" y1="827" x2="270.52" y2="829" style="stroke-width: 0.5;stroke: rgb(128,128,128);stroke-opacity: 1.0;stroke-linecap: square;stroke-miterlimit: 10;shape-rendering:crispEdges;" clip-path="url(#_8305175092199clip-0)"/><line x1="375.91" y1="827" x2="375.91" y2="827" style="stroke-width: 0.5;stroke: rgb(128,128,128);stroke-opacity: 1.0;stroke-linecap: square;stroke-miterlimit: 10;shape-rendering:crispEdges;" clip-path="url(#_8305175092199clip-0)"/><line x1="375.91" y1="827" x2="375.91" y2="829" style="stroke-width: 0.5;stroke: rgb(128,128,128);stroke-opacity: 1.0;stroke-linecap: square;stroke-miterlimit: 10;shape-rendering:crispEdges;" clip-path="url(#_8305175092199clip-0)"/><line x1="481.3" y1="827" x2="481.3" y2="827" style="stroke-width: 0.5;stroke: rgb(128,128,128);stroke-opacity: 1.0;stroke-linecap: square;stroke-miterlimit: 10;shape-rendering:crispEdges;" clip-path="url(#_8305175092199clip-0)"/><line x1="481.3" y1="827" x2="481.3" y2="829" style="stroke-width: 0.5;stroke: rgb(128,128,128);stroke-opacity: 1.0;stroke-linecap: square;stroke-miterlimit: 10;shape-rendering:crispEdges;" clip-path="url(#_8305175092199clip-0)"/><line x1="586.7" y1="827" x2="586.7" y2="827" style="stroke-width: 0.5;stroke: rgb(128,128,128);stroke-opacity: 1.0;stroke-linecap: square;stroke-miterlimit: 10;shape-rendering:crispEdges;" clip-path="url(#_8305175092199clip-0)"/><line x1="586.7" y1="827" x2="586.7" y2="829" style="stroke-width: 0.5;stroke: rgb(128,128,128);stroke-opacity: 1.0;stroke-linecap: square;stroke-miterlimit: 10;shape-rendering:crispEdges;" clip-path="url(#_8305175092199clip-0)"/><line x1="692.09" y1="827" x2="692.09" y2="827" style="stroke-width: 0.5;stroke: rgb(128,128,128);stroke-opacity: 1.0;stroke-linecap: square;stroke-miterlimit: 10;shape-rendering:crispEdges;" clip-path="url(#_8305175092199clip-0)"/><line x1="692.09" y1="827" x2="692.09" y2="829" style="stroke-width: 0.5;stroke: rgb(128,128,128);stroke-opacity: 1.0;stroke-linecap: square;stroke-miterlimit: 10;shape-rendering:crispEdges;" clip-path="url(#_8305175092199clip-0)"/><line x1="797.48" y1="827" x2="797.48" y2="827" style="stroke-width: 0.5;stroke: rgb(128,128,128);stroke-opacity: 1.0;stroke-linecap: square;stroke-miterlimit: 10;shape-rendering:crispEdges;" clip-path="url(#_8305175092199clip-0)"/><line x1="797.48" y1="827" x2="797.48" y2="829" style="stroke-width: 0.5;stroke: rgb(128,128,128);stroke-opacity: 1.0;stroke-linecap: square;stroke-miterlimit: 10;shape-rendering:crispEdges;" clip-path="url(#_8305175092199clip-0)"/><line x1="902.88" y1="827" x2="902.88" y2="827" style="stroke-width: 0.5;stroke: rgb(128,128,128);stroke-opacity: 1.0;stroke-linecap: square;stroke-miterlimit: 10;shape-rendering:crispEdges;" clip-path="url(#_8305175092199clip-0)"/><line x1="902.88" y1="827" x2="902.88" y2="829" style="stroke-width: 0.5;stroke: rgb(128,128,128);stroke-opacity: 1.0;stroke-linecap: square;stroke-miterlimit: 10;shape-rendering:crispEdges;" clip-path="url(#_8305175092199clip-0)"/><g ><text x="135.12" y="845.01" style="fill: rgb(64,64,64); fill-opacity: 1.0; font-family: Tahoma; font-size: 12px;" clip-path="url(#_8305175092199clip-0)">28.02.2022</text></g><g ><text x="240.52" y="845.01" style="fill: rgb(64,64,64); fill-opacity: 1.0; font-family: Tahoma; font-size: 12px;" clip-path="url(#_8305175092199clip-0)">25.02.2022</text></g><g ><text x="345.91" y="845.01" style="fill: rgb(64,64,64); fill-opacity: 1.0; font-family: Tahoma; font-size: 12px;" clip-path="url(#_8305175092199clip-0)">24.02.2022</text></g><g ><text x="451.3" y="845.01" style="fill: rgb(64,64,64); fill-opacity: 1.0; font-family: Tahoma; font-size: 12px;" clip-path="url(#_8305175092199clip-0)">09.03.2022</text></g><g ><text x="556.7" y="845.01" style="fill: rgb(64,64,64); fill-opacity: 1.0; font-family: Tahoma; font-size: 12px;" clip-path="url(#_8305175092199clip-0)">04.03.2022</text></g><g ><text x="662.09" y="845.01" style="fill: rgb(64,64,64); fill-opacity: 1.0; font-family: Tahoma; font-size: 12px;" clip-path="url(#_8305175092199clip-0)">03.03.2022</text></g><g ><text x="767.48" y="845.01" style="fill: rgb(64,64,64); fill-opacity: 1.0; font-family: Tahoma; font-size: 12px;" clip-path="url(#_8305175092199clip-0)">02.03.2022</text></g><g ><text x="872.88" y="845.01" style="fill: rgb(64,64,64); fill-opacity: 1.0; font-family: Tahoma; font-size: 12px;" clip-path="url(#_8305175092199clip-0)">01.03.2022</text></g><g ><text x="517.5" y="869.11" style="fill: rgb(64,64,64); fill-opacity: 1.0; font-family: Tahoma; font-size: 14px; font-weight: bold;" clip-path="url(#_8305175092199clip-0)">Date</text></g><line x1="76" y1="35" x2="76" y2="823" style="stroke-width: 0.5;stroke: rgb(128,128,128);stroke-opacity: 1.0;stroke-linecap: square;stroke-miterlimit: 10;shape-rendering:crispEdges;" clip-path="url(#_8305175092199clip-0)"/><g ><text x="63" y="828.02" style="fill: rgb(64,64,64); fill-opacity: 1.0; font-family: Tahoma; font-size: 12px;" clip-path="url(#_8305175092199clip-0)">0</text></g><line x1="74" y1="823" x2="76" y2="823" style="stroke-width: 0.5;stroke: rgb(128,128,128);stroke-opacity: 1.0;stroke-linecap: square;stroke-miterlimit: 10;shape-rendering:crispEdges;" clip-path="url(#_8305175092199clip-0)"/><g ><text x="40" y="798.15" style="fill: rgb(64,64,64); fill-opacity: 1.0; font-family: Tahoma; font-size: 12px;" clip-path="url(#_8305175092199clip-0)">2 000</text></g><line x1="74" y1="793.13" x2="76" y2="793.13" style="stroke-width: 0.5;stroke: rgb(128,128,128);stroke-opacity: 1.0;stroke-linecap: square;stroke-miterlimit: 10;shape-rendering:crispEdges;" clip-path="url(#_8305175092199clip-0)"/><g ><text x="40" y="768.28" style="fill: rgb(64,64,64); fill-opacity: 1.0; font-family: Tahoma; font-size: 12px;" clip-path="url(#_8305175092199clip-0)">4 000</text></g><line x1="74" y1="763.25" x2="76" y2="763.25" style="stroke-width: 0.5;stroke: rgb(128,128,128);stroke-opacity: 1.0;stroke-linecap: square;stroke-miterlimit: 10;shape-rendering:crispEdges;" clip-path="url(#_8305175092199clip-0)"/><g ><text x="40" y="738.4" style="fill: rgb(64,64,64); fill-opacity: 1.0; font-family: Tahoma; font-size: 12px;" clip-path="url(#_8305175092199clip-0)">6 000</text></g><line x1="74" y1="733.38" x2="76" y2="733.38" style="stroke-width: 0.5;stroke: rgb(128,128,128);stroke-opacity: 1.0;stroke-linecap: square;stroke-miterlimit: 10;shape-rendering:crispEdges;" clip-path="url(#_8305175092199clip-0)"/><g ><text x="40" y="708.53" style="fill: rgb(64,64,64); fill-opacity: 1.0; font-family: Tahoma; font-size: 12px;" clip-path="url(#_8305175092199clip-0)">8 000</text></g><line x1="74" y1="703.51" x2="76" y2="703.51" style="stroke-width: 0.5;stroke: rgb(128,128,128);stroke-opacity: 1.0;stroke-linecap: square;stroke-miterlimit: 10;shape-rendering:crispEdges;" clip-path="url(#_8305175092199clip-0)"/><g ><text x="33" y="678.66" style="fill: rgb(64,64,64); fill-opacity: 1.0; font-family: Tahoma; font-size: 12px;" clip-path="url(#_8305175092199clip-0)">10 000</text></g><line x1="74" y1="673.64" x2="76" y2="673.64" style="stroke-width: 0.5;stroke: rgb(128,128,128);stroke-opacity: 1.0;stroke-linecap: square;stroke-miterlimit: 10;shape-rendering:crispEdges;" clip-path="url(#_8305175092199clip-0)"/><g ><text x="33" y="648.79" style="fill: rgb(64,64,64); fill-opacity: 1.0; font-family: Tahoma; font-size: 12px;" clip-path="url(#_8305175092199clip-0)">12 000</text></g><line x1="74" y1="643.76" x2="76" y2="643.76" style="stroke-width: 0.5;stroke: rgb(128,128,128);stroke-opacity: 1.0;stroke-linecap: square;stroke-miterlimit: 10;shape-rendering:crispEdges;" clip-path="url(#_8305175092199clip-0)"/><g ><text x="33" y="618.91" style="fill: rgb(64,64,64); fill-opacity: 1.0; font-family: Tahoma; font-size: 12px;" clip-path="url(#_8305175092199clip-0)">14 000</text></g><line x1="74" y1="613.89" x2="76" y2="613.89" style="stroke-width: 0.5;stroke: rgb(128,128,128);stroke-opacity: 1.0;stroke-linecap: square;stroke-miterlimit: 10;shape-rendering:crispEdges;" clip-path="url(#_8305175092199clip-0)"/><g ><text x="33" y="589.04" style="fill: rgb(64,64,64); fill-opacity: 1.0; font-family: Tahoma; font-size: 12px;" clip-path="url(#_8305175092199clip-0)">16 000</text></g><line x1="74" y1="584.02" x2="76" y2="584.02" style="stroke-width: 0.5;stroke: rgb(128,128,128);stroke-opacity: 1.0;stroke-linecap: square;stroke-miterlimit: 10;shape-rendering:crispEdges;" clip-path="url(#_8305175092199clip-0)"/><g ><text x="33" y="559.17" style="fill: rgb(64,64,64); fill-opacity: 1.0; font-family: Tahoma; font-size: 12px;" clip-path="url(#_8305175092199clip-0)">18 000</text></g><line x1="74" y1="554.15" x2="76" y2="554.15" style="stroke-width: 0.5;stroke: rgb(128,128,128);stroke-opacity: 1.0;stroke-linecap: square;stroke-miterlimit: 10;shape-rendering:crispEdges;" clip-path="url(#_8305175092199clip-0)"/><g ><text x="33" y="529.3" style="fill: rgb(64,64,64); fill-opacity: 1.0; font-family: Tahoma; font-size: 12px;" clip-path="url(#_8305175092199clip-0)">20 000</text></g><line x1="74" y1="524.27" x2="76" y2="524.27" style="stroke-width: 0.5;stroke: rgb(128,128,128);stroke-opacity: 1.0;stroke-linecap: square;stroke-miterlimit: 10;shape-rendering:crispEdges;" clip-path="url(#_8305175092199clip-0)"/><g ><text x="33" y="499.42" style="fill: rgb(64,64,64); fill-opacity: 1.0; font-family: Tahoma; font-size: 12px;" clip-path="url(#_8305175092199clip-0)">22 000</text></g><line x1="74" y1="494.4" x2="76" y2="494.4" style="stroke-width: 0.5;stroke: rgb(128,128,128);stroke-opacity: 1.0;stroke-linecap: square;stroke-miterlimit: 10;shape-rendering:crispEdges;" clip-path="url(#_8305175092199clip-0)"/><g ><text x="33" y="469.55" style="fill: rgb(64,64,64); fill-opacity: 1.0; font-family: Tahoma; font-size: 12px;" clip-path="url(#_8305175092199clip-0)">24 000</text></g><line x1="74" y1="464.53" x2="76" y2="464.53" style="stroke-width: 0.5;stroke: rgb(128,128,128);stroke-opacity: 1.0;stroke-linecap: square;stroke-miterlimit: 10;shape-rendering:crispEdges;" clip-path="url(#_8305175092199clip-0)"/><g ><text x="33" y="439.68" style="fill: rgb(64,64,64); fill-opacity: 1.0; font-family: Tahoma; font-size: 12px;" clip-path="url(#_8305175092199clip-0)">26 000</text></g><line x1="74" y1="434.66" x2="76" y2="434.66" style="stroke-width: 0.5;stroke: rgb(128,128,128);stroke-opacity: 1.0;stroke-linecap: square;stroke-miterlimit: 10;shape-rendering:crispEdges;" clip-path="url(#_8305175092199clip-0)"/><g ><text x="33" y="409.81" style="fill: rgb(64,64,64); fill-opacity: 1.0; font-family: Tahoma; font-size: 12px;" clip-path="url(#_8305175092199clip-0)">28 000</text></g><line x1="74" y1="404.78" x2="76" y2="404.78" style="stroke-width: 0.5;stroke: rgb(128,128,128);stroke-opacity: 1.0;stroke-linecap: square;stroke-miterlimit: 10;shape-rendering:crispEdges;" clip-path="url(#_8305175092199clip-0)"/><g ><text x="33" y="379.93" style="fill: rgb(64,64,64); fill-opacity: 1.0; font-family: Tahoma; font-size: 12px;" clip-path="url(#_8305175092199clip-0)">30 000</text></g><line x1="74" y1="374.91" x2="76" y2="374.91" style="stroke-width: 0.5;stroke: rgb(128,128,128);stroke-opacity: 1.0;stroke-linecap: square;stroke-miterlimit: 10;shape-rendering:crispEdges;" clip-path="url(#_8305175092199clip-0)"/><g ><text x="33" y="350.06" style="fill: rgb(64,64,64); fill-opacity: 1.0; font-family: Tahoma; font-size: 12px;" clip-path="url(#_8305175092199clip-0)">32 000</text></g><line x1="74" y1="345.04" x2="76" y2="345.04" style="stroke-width: 0.5;stroke: rgb(128,128,128);stroke-opacity: 1.0;stroke-linecap: square;stroke-miterlimit: 10;shape-rendering:crispEdges;" clip-path="url(#_8305175092199clip-0)"/><g ><text x="33" y="320.19" style="fill: rgb(64,64,64); fill-opacity: 1.0; font-family: Tahoma; font-size: 12px;" clip-path="url(#_8305175092199clip-0)">34 000</text></g><line x1="74" y1="315.17" x2="76" y2="315.17" style="stroke-width: 0.5;stroke: rgb(128,128,128);stroke-opacity: 1.0;stroke-linecap: square;stroke-miterlimit: 10;shape-rendering:crispEdges;" clip-path="url(#_8305175092199clip-0)"/><g ><text x="33" y="290.31" style="fill: rgb(64,64,64); fill-opacity: 1.0; font-family: Tahoma; font-size: 12px;" clip-path="url(#_8305175092199clip-0)">36 000</text></g><line x1="74" y1="285.29" x2="76" y2="285.29" style="stroke-width: 0.5;stroke: rgb(128,128,128);stroke-opacity: 1.0;stroke-linecap: square;stroke-miterlimit: 10;shape-rendering:crispEdges;" clip-path="url(#_8305175092199clip-0)"/><g ><text x="33" y="260.44" style="fill: rgb(64,64,64); fill-opacity: 1.0; font-family: Tahoma; font-size: 12px;" clip-path="url(#_8305175092199clip-0)">38 000</text></g><line x1="74" y1="255.42" x2="76" y2="255.42" style="stroke-width: 0.5;stroke: rgb(128,128,128);stroke-opacity: 1.0;stroke-linecap: square;stroke-miterlimit: 10;shape-rendering:crispEdges;" clip-path="url(#_8305175092199clip-0)"/><g ><text x="33" y="230.57" style="fill: rgb(64,64,64); fill-opacity: 1.0; font-family: Tahoma; font-size: 12px;" clip-path="url(#_8305175092199clip-0)">40 000</text></g><line x1="74" y1="225.55" x2="76" y2="225.55" style="stroke-width: 0.5;stroke: rgb(128,128,128);stroke-opacity: 1.0;stroke-linecap: square;stroke-miterlimit: 10;shape-rendering:crispEdges;" clip-path="url(#_8305175092199clip-0)"/><g ><text x="33" y="200.7" style="fill: rgb(64,64,64); fill-opacity: 1.0; font-family: Tahoma; font-size: 12px;" clip-path="url(#_8305175092199clip-0)">42 000</text></g><line x1="74" y1="195.68" x2="76" y2="195.68" style="stroke-width: 0.5;stroke: rgb(128,128,128);stroke-opacity: 1.0;stroke-linecap: square;stroke-miterlimit: 10;shape-rendering:crispEdges;" clip-path="url(#_8305175092199clip-0)"/><g ><text x="33" y="170.82" style="fill: rgb(64,64,64); fill-opacity: 1.0; font-family: Tahoma; font-size: 12px;" clip-path="url(#_8305175092199clip-0)">44 000</text></g><line x1="74" y1="165.8" x2="76" y2="165.8" style="stroke-width: 0.5;stroke: rgb(128,128,128);stroke-opacity: 1.0;stroke-linecap: square;stroke-miterlimit: 10;shape-rendering:crispEdges;" clip-path="url(#_8305175092199clip-0)"/><g ><text x="33" y="140.95" style="fill: rgb(64,64,64); fill-opacity: 1.0; font-family: Tahoma; font-size: 12px;" clip-path="url(#_8305175092199clip-0)">46 000</text></g><line x1="74" y1="135.93" x2="76" y2="135.93" style="stroke-width: 0.5;stroke: rgb(128,128,128);stroke-opacity: 1.0;stroke-linecap: square;stroke-miterlimit: 10;shape-rendering:crispEdges;" clip-path="url(#_8305175092199clip-0)"/><g ><text x="33" y="111.08" style="fill: rgb(64,64,64); fill-opacity: 1.0; font-family: Tahoma; font-size: 12px;" clip-path="url(#_8305175092199clip-0)">48 000</text></g><line x1="74" y1="106.06" x2="76" y2="106.06" style="stroke-width: 0.5;stroke: rgb(128,128,128);stroke-opacity: 1.0;stroke-linecap: square;stroke-miterlimit: 10;shape-rendering:crispEdges;" clip-path="url(#_8305175092199clip-0)"/><g ><text x="33" y="81.21" style="fill: rgb(64,64,64); fill-opacity: 1.0; font-family: Tahoma; font-size: 12px;" clip-path="url(#_8305175092199clip-0)">50 000</text></g><line x1="74" y1="76.19" x2="76" y2="76.19" style="stroke-width: 0.5;stroke: rgb(128,128,128);stroke-opacity: 1.0;stroke-linecap: square;stroke-miterlimit: 10;shape-rendering:crispEdges;" clip-path="url(#_8305175092199clip-0)"/><g ><text x="33" y="51.33" style="fill: rgb(64,64,64); fill-opacity: 1.0; font-family: Tahoma; font-size: 12px;" clip-path="url(#_8305175092199clip-0)">52 000</text></g><line x1="74" y1="46.31" x2="76" y2="46.31" style="stroke-width: 0.5;stroke: rgb(128,128,128);stroke-opacity: 1.0;stroke-linecap: square;stroke-miterlimit: 10;shape-rendering:crispEdges;" clip-path="url(#_8305175092199clip-0)"/><g style="fill: rgb(64,64,64); fill-opacity: 1.0; stroke: none" transform="matrix(0,-1,1,0,-409.5,448.5)" clip-path="url(#_8305175092199clip-1)"><path d="M -36.11 434.61 L -38.5 434.61 L -38.5 433.81 Q -38.73 434 -39.03 434.22 Q -39.33 434.44 -39.55 434.55 Q -39.84 434.69 -40.12 434.75 Q -40.39 434.83 -40.78 434.83 Q -42.09 434.83 -42.86 433.73 Q -43.62 432.64 -43.62 430.83 Q -43.62 429.83 -43.38 429.09 Q -43.11 428.34 -42.66 427.8 Q -42.23 427.3 -41.64 427.01 Q -41.05 426.72 -40.39 426.72 Q -39.78 426.72 -39.41 426.84 Q -39.02 426.97 -38.5 427.23 L -38.5 423.97 L -36.11 423.97 L -36.11 434.61 Z  M -38.5 432.48 L -38.5 428.72 Q -38.67 428.64 -38.97 428.58 Q -39.25 428.51 -39.45 428.51 Q -40.31 428.51 -40.75 429.12 Q -41.19 429.72 -41.19 430.8 Q -41.19 431.94 -40.84 432.45 Q -40.5 432.95 -39.72 432.95 Q -39.41 432.95 -39.09 432.83 Q -38.77 432.7 -38.5 432.48 Z  M -31.88 434.61 L -34.27 434.61 L -34.27 426.94 L -31.88 426.94 L -31.88 434.61 Z  M -31.81 425.84 L -34.34 425.84 L -34.34 423.97 L -31.81 423.97 L -31.81 425.84 Z  M -25.14 425.78 L -25.32 425.78 Q -25.46 425.73 -25.76 425.67 Q -26.04 425.61 -26.31 425.61 Q -27.03 425.61 -27.29 425.87 Q -27.56 426.14 -27.56 426.87 L -27.56 426.94 L -25.65 426.94 L -25.65 428.59 L -27.46 428.59 L -27.46 434.61 L -29.87 434.61 L -29.87 428.59 L -30.82 428.59 L -30.82 426.94 L -29.87 426.94 L -29.87 426.72 Q -29.87 425.31 -29.14 424.61 Q -28.39 423.91 -26.89 423.91 Q -26.37 423.91 -25.92 423.95 Q -25.46 423.98 -25.14 424.05 L -25.14 425.78 Z  M -19.78 425.78 L -19.97 425.78 Q -20.11 425.73 -20.41 425.67 Q -20.69 425.61 -20.96 425.61 Q -21.67 425.61 -21.94 425.87 Q -22.21 426.14 -22.21 426.87 L -22.21 426.94 L -20.3 426.94 L -20.3 428.59 L -22.11 428.59 L -22.11 434.61 L -24.52 434.61 L -24.52 428.59 L -25.47 428.59 L -25.47 426.94 L -24.52 426.94 L -24.52 426.72 Q -24.52 425.31 -23.78 424.61 Q -23.03 423.91 -21.53 423.91 Q -21.02 423.91 -20.56 423.95 Q -20.11 423.98 -19.78 424.05 L -19.78 425.78 Z  M -15.42 434.81 Q -17.59 434.81 -18.74 433.78 Q -19.9 432.73 -19.9 430.81 Q -19.9 428.94 -18.82 427.81 Q -17.74 426.69 -15.81 426.69 Q -14.04 426.69 -13.15 427.64 Q -12.26 428.59 -12.26 430.36 L -12.26 431.22 L -17.51 431.22 Q -17.46 431.76 -17.27 432.12 Q -17.09 432.47 -16.77 432.69 Q -16.46 432.91 -16.06 433 Q -15.65 433.08 -15.17 433.08 Q -14.74 433.08 -14.34 433 Q -13.93 432.91 -13.6 432.75 Q -13.31 432.62 -13.06 432.47 Q -12.81 432.31 -12.65 432.2 L -12.4 432.2 L -12.4 434.17 Q -12.7 434.3 -12.95 434.41 Q -13.18 434.5 -13.6 434.59 Q -13.99 434.7 -14.42 434.75 Q -14.82 434.81 -15.42 434.81 Z  M -14.62 429.78 Q -14.63 429.03 -14.98 428.64 Q -15.31 428.23 -15.99 428.23 Q -16.68 428.23 -17.07 428.66 Q -17.46 429.06 -17.51 429.78 L -14.62 429.78 Z  M -5.87 429.19 L -6.07 429.19 Q -6.21 429.14 -6.48 429.12 Q -6.73 429.09 -7.04 429.09 Q -7.42 429.09 -7.84 429.2 Q -8.24 429.31 -8.63 429.47 L -8.63 434.61 L -11.02 434.61 L -11.02 426.94 L -8.63 426.94 L -8.63 428.03 Q -8.48 427.87 -8.2 427.66 Q -7.9 427.42 -7.65 427.28 Q -7.4 427.12 -7.06 427.01 Q -6.7 426.91 -6.4 426.91 Q -6.27 426.91 -6.13 426.92 Q -5.99 426.92 -5.87 426.94 L -5.87 429.19 Z  M -1.03 434.81 Q -3.2 434.81 -4.36 433.78 Q -5.52 432.73 -5.52 430.81 Q -5.52 428.94 -4.44 427.81 Q -3.36 426.69 -1.42 426.69 Q 0.34 426.69 1.23 427.64 Q 2.12 428.59 2.12 430.36 L 2.12 431.22 L -3.13 431.22 Q -3.08 431.76 -2.89 432.12 Q -2.7 432.47 -2.39 432.69 Q -2.08 432.91 -1.67 433 Q -1.27 433.08 -0.78 433.08 Q -0.36 433.08 0.05 433 Q 0.45 432.91 0.78 432.75 Q 1.08 432.62 1.33 432.47 Q 1.58 432.31 1.73 432.2 L 1.98 432.2 L 1.98 434.17 Q 1.69 434.3 1.44 434.41 Q 1.2 434.5 0.78 434.59 Q 0.39 434.7 -0.03 434.75 Q -0.44 434.81 -1.03 434.81 Z  M -0.24 429.78 Q -0.25 429.03 -0.59 428.64 Q -0.92 428.23 -1.61 428.23 Q -2.3 428.23 -2.69 428.66 Q -3.08 429.06 -3.13 429.78 L -0.24 429.78 Z  M 10.55 434.61 L 8.14 434.61 L 8.14 430.8 Q 8.14 430.34 8.09 429.87 Q 8.06 429.41 7.97 429.19 Q 7.84 428.94 7.61 428.83 Q 7.37 428.7 6.98 428.7 Q 6.69 428.7 6.39 428.81 Q 6.09 428.92 5.75 429.17 L 5.75 434.61 L 3.36 434.61 L 3.36 426.94 L 5.75 426.94 L 5.75 427.78 Q 6.33 427.28 6.89 427 Q 7.45 426.72 8.12 426.72 Q 9.3 426.72 9.92 427.47 Q 10.55 428.2 10.55 429.61 L 10.55 434.61 Z  M 15.26 434.76 Q 13.79 434.76 13.12 434.17 Q 12.46 433.56 12.46 432.19 L 12.46 428.59 L 11.54 428.59 L 11.54 426.94 L 12.46 426.94 L 12.46 424.73 L 14.85 424.73 L 14.85 426.94 L 17.15 426.94 L 17.15 428.59 L 14.85 428.59 L 14.85 431.33 Q 14.85 431.72 14.85 432.03 Q 14.87 432.33 14.96 432.56 Q 15.07 432.8 15.3 432.94 Q 15.55 433.08 16.01 433.08 Q 16.21 433.08 16.51 433 Q 16.82 432.92 16.95 432.86 L 17.15 432.86 L 17.15 434.55 Q 16.76 434.64 16.32 434.7 Q 15.88 434.76 15.26 434.76 Z  M 26 434.81 Q 25.05 434.81 24.25 434.58 Q 23.47 434.33 22.9 433.84 Q 22.32 433.34 21.99 432.59 Q 21.68 431.83 21.68 430.8 Q 21.68 429.7 22.02 428.94 Q 22.36 428.16 22.96 427.66 Q 23.54 427.17 24.32 426.95 Q 25.1 426.72 25.93 426.72 Q 26.57 426.72 27.19 426.87 Q 27.83 427.01 28.49 427.33 L 28.49 429.39 L 28.18 429.39 Q 28.04 429.25 27.82 429.09 Q 27.61 428.92 27.36 428.78 Q 27.11 428.64 26.79 428.55 Q 26.46 428.44 26.05 428.44 Q 25.13 428.44 24.63 429.08 Q 24.13 429.72 24.13 430.8 Q 24.13 431.95 24.66 432.53 Q 25.21 433.09 26.08 433.09 Q 26.54 433.09 26.88 433 Q 27.22 432.89 27.47 432.75 Q 27.71 432.59 27.88 432.45 Q 28.05 432.3 28.18 432.17 L 28.49 432.17 L 28.49 434.22 Q 28.27 434.31 28 434.44 Q 27.74 434.55 27.46 434.61 Q 27.11 434.72 26.8 434.76 Q 26.5 434.81 26 434.81 Z  M 36.75 434.61 L 34.36 434.61 L 34.36 433.76 Q 33.73 434.28 33.22 434.56 Q 32.7 434.83 31.98 434.83 Q 30.84 434.83 30.2 434.11 Q 29.56 433.37 29.56 431.92 L 29.56 426.94 L 31.97 426.94 L 31.97 430.73 Q 31.97 431.33 32 431.72 Q 32.03 432.09 32.14 432.34 Q 32.25 432.58 32.47 432.7 Q 32.7 432.83 33.12 432.83 Q 33.37 432.83 33.72 432.7 Q 34.06 432.58 34.36 432.37 L 34.36 426.94 L 36.75 426.94 L 36.75 434.61 Z  M 43.74 429.19 L 43.54 429.19 Q 43.4 429.14 43.13 429.12 Q 42.88 429.09 42.57 429.09 Q 42.19 429.09 41.77 429.2 Q 41.37 429.31 40.97 429.47 L 40.97 434.61 L 38.58 434.61 L 38.58 426.94 L 40.97 426.94 L 40.97 428.03 Q 41.13 427.87 41.41 427.66 Q 41.71 427.42 41.96 427.28 Q 42.21 427.12 42.55 427.01 Q 42.91 426.91 43.21 426.91 Q 43.33 426.91 43.47 426.92 Q 43.62 426.92 43.74 426.94 L 43.74 429.19 Z  M 49.81 429.19 L 49.61 429.19 Q 49.47 429.14 49.2 429.12 Q 48.95 429.09 48.64 429.09 Q 48.26 429.09 47.84 429.2 Q 47.44 429.31 47.04 429.47 L 47.04 434.61 L 44.65 434.61 L 44.65 426.94 L 47.04 426.94 L 47.04 428.03 Q 47.2 427.87 47.48 427.66 Q 47.78 427.42 48.03 427.28 Q 48.28 427.12 48.62 427.01 Q 48.98 426.91 49.28 426.91 Q 49.4 426.91 49.54 426.92 Q 49.69 426.92 49.81 426.94 L 49.81 429.19 Z  M 54.65 434.81 Q 52.47 434.81 51.32 433.78 Q 50.16 432.73 50.16 430.81 Q 50.16 428.94 51.24 427.81 Q 52.32 426.69 54.26 426.69 Q 56.02 426.69 56.91 427.64 Q 57.8 428.59 57.8 430.36 L 57.8 431.22 L 52.55 431.22 Q 52.6 431.76 52.79 432.12 Q 52.97 432.47 53.29 432.69 Q 53.6 432.91 54.01 433 Q 54.41 433.08 54.9 433.08 Q 55.32 433.08 55.72 433 Q 56.13 432.91 56.46 432.75 Q 56.76 432.62 57.01 432.47 Q 57.26 432.31 57.41 432.2 L 57.66 432.2 L 57.66 434.17 Q 57.37 434.3 57.12 434.41 Q 56.88 434.5 56.46 434.59 Q 56.07 434.7 55.65 434.75 Q 55.24 434.81 54.65 434.81 Z  M 55.44 429.78 Q 55.43 429.03 55.08 428.64 Q 54.76 428.23 54.07 428.23 Q 53.38 428.23 52.99 428.66 Q 52.6 429.06 52.55 429.78 L 55.44 429.78 Z  M 66.22 434.61 L 63.82 434.61 L 63.82 430.8 Q 63.82 430.34 63.77 429.87 Q 63.74 429.41 63.65 429.19 Q 63.52 428.94 63.29 428.83 Q 63.05 428.7 62.66 428.7 Q 62.37 428.7 62.07 428.81 Q 61.77 428.92 61.43 429.17 L 61.43 434.61 L 59.04 434.61 L 59.04 426.94 L 61.43 426.94 L 61.43 427.78 Q 62.01 427.28 62.57 427 Q 63.13 426.72 63.8 426.72 Q 64.97 426.72 65.6 427.47 Q 66.22 428.2 66.22 429.61 L 66.22 434.61 Z  M 71.76 434.81 Q 70.81 434.81 70.01 434.58 Q 69.23 434.33 68.66 433.84 Q 68.08 433.34 67.75 432.59 Q 67.44 431.83 67.44 430.8 Q 67.44 429.7 67.78 428.94 Q 68.12 428.16 68.72 427.66 Q 69.3 427.17 70.08 426.95 Q 70.86 426.72 71.69 426.72 Q 72.33 426.72 72.95 426.87 Q 73.59 427.01 74.25 427.33 L 74.25 429.39 L 73.94 429.39 Q 73.8 429.25 73.58 429.09 Q 73.37 428.92 73.12 428.78 Q 72.87 428.64 72.55 428.55 Q 72.22 428.44 71.81 428.44 Q 70.89 428.44 70.39 429.08 Q 69.89 429.72 69.89 430.8 Q 69.89 431.95 70.42 432.53 Q 70.97 433.09 71.84 433.09 Q 72.3 433.09 72.64 433 Q 72.98 432.89 73.23 432.75 Q 73.47 432.59 73.64 432.45 Q 73.81 432.3 73.94 432.17 L 74.25 432.17 L 74.25 434.22 Q 74.03 434.31 73.76 434.44 Q 73.5 434.55 73.22 434.61 Q 72.87 434.72 72.56 434.76 Q 72.26 434.81 71.76 434.81 Z  M 82.54 426.94 L 78.66 437.42 L 76.1 437.42 L 77.26 434.42 L 74.44 426.94 L 76.96 426.94 L 78.57 431.75 L 80.08 426.94 L 82.54 426.94 Z "/></g><line x1="80" y1="823" x2="988" y2="823" style="stroke-width: 0.5;stroke: rgb(255,255,255);stroke-opacity: 1.0;stroke-linejoin: bevel;stroke-miterlimit: 0;stroke-dasharray: 2.0, 2.0;shape-rendering:crispEdges;" clip-path="url(#_8305175092199clip-2)"/><line x1="80" y1="793.13" x2="988" y2="793.13" style="stroke-width: 0.5;stroke: rgb(255,255,255);stroke-opacity: 1.0;stroke-linejoin: bevel;stroke-miterlimit: 0;stroke-dasharray: 2.0, 2.0;shape-rendering:crispEdges;" clip-path="url(#_8305175092199clip-2)"/><line x1="80" y1="763.25" x2="988" y2="763.25" style="stroke-width: 0.5;stroke: rgb(255,255,255);stroke-opacity: 1.0;stroke-linejoin: bevel;stroke-miterlimit: 0;stroke-dasharray: 2.0, 2.0;shape-rendering:crispEdges;" clip-path="url(#_8305175092199clip-2)"/><line x1="80" y1="733.38" x2="988" y2="733.38" style="stroke-width: 0.5;stroke: rgb(255,255,255);stroke-opacity: 1.0;stroke-linejoin: bevel;stroke-miterlimit: 0;stroke-dasharray: 2.0, 2.0;shape-rendering:crispEdges;" clip-path="url(#_8305175092199clip-2)"/><line x1="80" y1="703.51" x2="988" y2="703.51" style="stroke-width: 0.5;stroke: rgb(255,255,255);stroke-opacity: 1.0;stroke-linejoin: bevel;stroke-miterlimit: 0;stroke-dasharray: 2.0, 2.0;shape-rendering:crispEdges;" clip-path="url(#_8305175092199clip-2)"/><line x1="80" y1="673.64" x2="988" y2="673.64" style="stroke-width: 0.5;stroke: rgb(255,255,255);stroke-opacity: 1.0;stroke-linejoin: bevel;stroke-miterlimit: 0;stroke-dasharray: 2.0, 2.0;shape-rendering:crispEdges;" clip-path="url(#_8305175092199clip-2)"/><line x1="80" y1="643.76" x2="988" y2="643.76" style="stroke-width: 0.5;stroke: rgb(255,255,255);stroke-opacity: 1.0;stroke-linejoin: bevel;stroke-miterlimit: 0;stroke-dasharray: 2.0, 2.0;shape-rendering:crispEdges;" clip-path="url(#_8305175092199clip-2)"/><line x1="80" y1="613.89" x2="988" y2="613.89" style="stroke-width: 0.5;stroke: rgb(255,255,255);stroke-opacity: 1.0;stroke-linejoin: bevel;stroke-miterlimit: 0;stroke-dasharray: 2.0, 2.0;shape-rendering:crispEdges;" clip-path="url(#_8305175092199clip-2)"/><line x1="80" y1="584.02" x2="988" y2="584.02" style="stroke-width: 0.5;stroke: rgb(255,255,255);stroke-opacity: 1.0;stroke-linejoin: bevel;stroke-miterlimit: 0;stroke-dasharray: 2.0, 2.0;shape-rendering:crispEdges;" clip-path="url(#_8305175092199clip-2)"/><line x1="80" y1="554.15" x2="988" y2="554.15" style="stroke-width: 0.5;stroke: rgb(255,255,255);stroke-opacity: 1.0;stroke-linejoin: bevel;stroke-miterlimit: 0;stroke-dasharray: 2.0, 2.0;shape-rendering:crispEdges;" clip-path="url(#_8305175092199clip-2)"/><line x1="80" y1="524.27" x2="988" y2="524.27" style="stroke-width: 0.5;stroke: rgb(255,255,255);stroke-opacity: 1.0;stroke-linejoin: bevel;stroke-miterlimit: 0;stroke-dasharray: 2.0, 2.0;shape-rendering:crispEdges;" clip-path="url(#_8305175092199clip-2)"/><line x1="80" y1="494.4" x2="988" y2="494.4" style="stroke-width: 0.5;stroke: rgb(255,255,255);stroke-opacity: 1.0;stroke-linejoin: bevel;stroke-miterlimit: 0;stroke-dasharray: 2.0, 2.0;shape-rendering:crispEdges;" clip-path="url(#_8305175092199clip-2)"/><line x1="80" y1="464.53" x2="988" y2="464.53" style="stroke-width: 0.5;stroke: rgb(255,255,255);stroke-opacity: 1.0;stroke-linejoin: bevel;stroke-miterlimit: 0;stroke-dasharray: 2.0, 2.0;shape-rendering:crispEdges;" clip-path="url(#_8305175092199clip-2)"/><line x1="80" y1="434.66" x2="988" y2="434.66" style="stroke-width: 0.5;stroke: rgb(255,255,255);stroke-opacity: 1.0;stroke-linejoin: bevel;stroke-miterlimit: 0;stroke-dasharray: 2.0, 2.0;shape-rendering:crispEdges;" clip-path="url(#_8305175092199clip-2)"/><line x1="80" y1="404.78" x2="988" y2="404.78" style="stroke-width: 0.5;stroke: rgb(255,255,255);stroke-opacity: 1.0;stroke-linejoin: bevel;stroke-miterlimit: 0;stroke-dasharray: 2.0, 2.0;shape-rendering:crispEdges;" clip-path="url(#_8305175092199clip-2)"/><line x1="80" y1="374.91" x2="988" y2="374.91" style="stroke-width: 0.5;stroke: rgb(255,255,255);stroke-opacity: 1.0;stroke-linejoin: bevel;stroke-miterlimit: 0;stroke-dasharray: 2.0, 2.0;shape-rendering:crispEdges;" clip-path="url(#_8305175092199clip-2)"/><line x1="80" y1="345.04" x2="988" y2="345.04" style="stroke-width: 0.5;stroke: rgb(255,255,255);stroke-opacity: 1.0;stroke-linejoin: bevel;stroke-miterlimit: 0;stroke-dasharray: 2.0, 2.0;shape-rendering:crispEdges;" clip-path="url(#_8305175092199clip-2)"/><line x1="80" y1="315.17" x2="988" y2="315.17" style="stroke-width: 0.5;stroke: rgb(255,255,255);stroke-opacity: 1.0;stroke-linejoin: bevel;stroke-miterlimit: 0;stroke-dasharray: 2.0, 2.0;shape-rendering:crispEdges;" clip-path="url(#_8305175092199clip-2)"/><line x1="80" y1="285.29" x2="988" y2="285.29" style="stroke-width: 0.5;stroke: rgb(255,255,255);stroke-opacity: 1.0;stroke-linejoin: bevel;stroke-miterlimit: 0;stroke-dasharray: 2.0, 2.0;shape-rendering:crispEdges;" clip-path="url(#_8305175092199clip-2)"/><line x1="80" y1="255.42" x2="988" y2="255.42" style="stroke-width: 0.5;stroke: rgb(255,255,255);stroke-opacity: 1.0;stroke-linejoin: bevel;stroke-miterlimit: 0;stroke-dasharray: 2.0, 2.0;shape-rendering:crispEdges;" clip-path="url(#_8305175092199clip-2)"/><line x1="80" y1="225.55" x2="988" y2="225.55" style="stroke-width: 0.5;stroke: rgb(255,255,255);stroke-opacity: 1.0;stroke-linejoin: bevel;stroke-miterlimit: 0;stroke-dasharray: 2.0, 2.0;shape-rendering:crispEdges;" clip-path="url(#_8305175092199clip-2)"/><line x1="80" y1="195.68" x2="988" y2="195.68" style="stroke-width: 0.5;stroke: rgb(255,255,255);stroke-opacity: 1.0;stroke-linejoin: bevel;stroke-miterlimit: 0;stroke-dasharray: 2.0, 2.0;shape-rendering:crispEdges;" clip-path="url(#_8305175092199clip-2)"/><line x1="80" y1="165.8" x2="988" y2="165.8" style="stroke-width: 0.5;stroke: rgb(255,255,255);stroke-opacity: 1.0;stroke-linejoin: bevel;stroke-miterlimit: 0;stroke-dasharray: 2.0, 2.0;shape-rendering:crispEdges;" clip-path="url(#_8305175092199clip-2)"/><line x1="80" y1="135.93" x2="988" y2="135.93" style="stroke-width: 0.5;stroke: rgb(255,255,255);stroke-opacity: 1.0;stroke-linejoin: bevel;stroke-miterlimit: 0;stroke-dasharray: 2.0, 2.0;shape-rendering:crispEdges;" clip-path="url(#_8305175092199clip-2)"/><line x1="80" y1="106.06" x2="988" y2="106.06" style="stroke-width: 0.5;stroke: rgb(255,255,255);stroke-opacity: 1.0;stroke-linejoin: bevel;stroke-miterlimit: 0;stroke-dasharray: 2.0, 2.0;shape-rendering:crispEdges;" clip-path="url(#_8305175092199clip-2)"/><line x1="80" y1="76.19" x2="988" y2="76.19" style="stroke-width: 0.5;stroke: rgb(255,255,255);stroke-opacity: 1.0;stroke-linejoin: bevel;stroke-miterlimit: 0;stroke-dasharray: 2.0, 2.0;shape-rendering:crispEdges;" clip-path="url(#_8305175092199clip-2)"/><line x1="80" y1="46.31" x2="988" y2="46.31" style="stroke-width: 0.5;stroke: rgb(255,255,255);stroke-opacity: 1.0;stroke-linejoin: bevel;stroke-miterlimit: 0;stroke-dasharray: 2.0, 2.0;shape-rendering:crispEdges;" clip-path="url(#_8305175092199clip-2)"/><rect x="125.4" y="816.1" width="18.92" height="6.9" style="fill: rgb(255,85,85); fill-opacity: 1.0" clip-path="url(#_8305175092199clip-2)"/><g ><text x="113.36" y="811.62" style="fill: rgb(0,0,0); fill-opacity: 1.0; font-family: Tahoma; font-size: 12px;" clip-path="url(#_8305175092199clip-2)">462,204</text></g><rect x="155.67" y="815.28" width="18.92" height="7.72" style="fill: rgb(85,85,255); fill-opacity: 1.0" clip-path="url(#_8305175092199clip-2)"/><g ><text x="143.62" y="810.8" style="fill: rgb(0,0,0); fill-opacity: 1.0; font-family: Tahoma; font-size: 12px;" clip-path="url(#_8305175092199clip-2)">517,072</text></g><rect x="185.93" y="177.14" width="18.92" height="645.86" style="fill: rgb(85,255,85); fill-opacity: 1.0" clip-path="url(#_8305175092199clip-2)"/><g ><text x="165.39" y="172.66" style="fill: rgb(0,0,0); fill-opacity: 1.0; font-family: Tahoma; font-size: 12px;" clip-path="url(#_8305175092199clip-2)">43 241,279</text></g><rect x="230.79" y="816.21" width="18.92" height="6.79" style="fill: rgb(255,85,85); fill-opacity: 1.0" clip-path="url(#_8305175092199clip-2)"/><g ><text x="218.75" y="811.73" style="fill: rgb(0,0,0); fill-opacity: 1.0; font-family: Tahoma; font-size: 12px;" clip-path="url(#_8305175092199clip-2)">454,809</text></g><rect x="261.06" y="815.38" width="18.92" height="7.62" style="fill: rgb(85,85,255); fill-opacity: 1.0" clip-path="url(#_8305175092199clip-2)"/><g ><text x="249.02" y="810.9" style="fill: rgb(0,0,0); fill-opacity: 1.0; font-family: Tahoma; font-size: 12px;" clip-path="url(#_8305175092199clip-2)">510,048</text></g><rect x="291.33" y="165.18" width="18.92" height="657.82" style="fill: rgb(85,255,85); fill-opacity: 1.0" clip-path="url(#_8305175092199clip-2)"/><g ><text x="270.78" y="160.7" style="fill: rgb(0,0,0); fill-opacity: 1.0; font-family: Tahoma; font-size: 12px;" clip-path="url(#_8305175092199clip-2)">44 042,043</text></g><rect x="336.19" y="815.88" width="18.92" height="7.12" style="fill: rgb(255,85,85); fill-opacity: 1.0" clip-path="url(#_8305175092199clip-2)"/><g ><text x="324.14" y="811.4" style="fill: rgb(0,0,0); fill-opacity: 1.0; font-family: Tahoma; font-size: 12px;" clip-path="url(#_8305175092199clip-2)">476,528</text></g><rect x="366.45" y="814.93" width="18.92" height="8.07" style="fill: rgb(85,85,255); fill-opacity: 1.0" clip-path="url(#_8305175092199clip-2)"/><g ><text x="354.41" y="810.45" style="fill: rgb(0,0,0); fill-opacity: 1.0; font-family: Tahoma; font-size: 12px;" clip-path="url(#_8305175092199clip-2)">540,127</text></g><rect x="396.72" y="184.87" width="18.92" height="638.13" style="fill: rgb(85,255,85); fill-opacity: 1.0" clip-path="url(#_8305175092199clip-2)"/><g ><text x="376.18" y="180.39" style="fill: rgb(0,0,0); fill-opacity: 1.0; font-family: Tahoma; font-size: 12px;" clip-path="url(#_8305175092199clip-2)">42 723,419</text></g><rect x="441.58" y="816.78" width="18.92" height="6.22" style="fill: rgb(255,85,85); fill-opacity: 1.0" clip-path="url(#_8305175092199clip-2)"/><g ><text x="429.54" y="812.3" style="fill: rgb(0,0,0); fill-opacity: 1.0; font-family: Tahoma; font-size: 12px;" clip-path="url(#_8305175092199clip-2)">416,558</text></g><rect x="471.85" y="816.12" width="18.92" height="6.88" style="fill: rgb(85,85,255); fill-opacity: 1.0" clip-path="url(#_8305175092199clip-2)"/><g ><text x="459.8" y="811.64" style="fill: rgb(0,0,0); fill-opacity: 1.0; font-family: Tahoma; font-size: 12px;" clip-path="url(#_8305175092199clip-2)">460,548</text></g><rect x="502.11" y="85.51" width="18.92" height="737.49" style="fill: rgb(85,255,85); fill-opacity: 1.0" clip-path="url(#_8305175092199clip-2)"/><g ><text x="481.57" y="81.03" style="fill: rgb(0,0,0); fill-opacity: 1.0; font-family: Tahoma; font-size: 12px;" clip-path="url(#_8305175092199clip-2)">49 375,855</text></g><rect x="546.97" y="816.81" width="18.92" height="6.19" style="fill: rgb(255,85,85); fill-opacity: 1.0" clip-path="url(#_8305175092199clip-2)"/><g ><text x="534.93" y="812.33" style="fill: rgb(0,0,0); fill-opacity: 1.0; font-family: Tahoma; font-size: 12px;" clip-path="url(#_8305175092199clip-2)">414,297</text></g><rect x="577.24" y="816.12" width="18.92" height="6.88" style="fill: rgb(85,85,255); fill-opacity: 1.0" clip-path="url(#_8305175092199clip-2)"/><g ><text x="565.2" y="811.65" style="fill: rgb(0,0,0); fill-opacity: 1.0; font-family: Tahoma; font-size: 12px;" clip-path="url(#_8305175092199clip-2)">460,385</text></g><rect x="607.5" y="72.52" width="18.92" height="750.48" style="fill: rgb(85,255,85); fill-opacity: 1.0" clip-path="url(#_8305175092199clip-2)"/><g ><text x="586.96" y="68.05" style="fill: rgb(0,0,0); fill-opacity: 1.0; font-family: Tahoma; font-size: 12px;" clip-path="url(#_8305175092199clip-2)">50 245,148</text></g><rect x="652.36" y="816.83" width="18.92" height="6.17" style="fill: rgb(255,85,85); fill-opacity: 1.0" clip-path="url(#_8305175092199clip-2)"/><g ><text x="640.32" y="812.35" style="fill: rgb(0,0,0); fill-opacity: 1.0; font-family: Tahoma; font-size: 12px;" clip-path="url(#_8305175092199clip-2)">413,145</text></g><rect x="682.63" y="816.12" width="18.92" height="6.88" style="fill: rgb(85,85,255); fill-opacity: 1.0" clip-path="url(#_8305175092199clip-2)"/><g ><text x="670.59" y="811.64" style="fill: rgb(0,0,0); fill-opacity: 1.0; font-family: Tahoma; font-size: 12px;" clip-path="url(#_8305175092199clip-2)">460,682</text></g><rect x="712.9" y="110.17" width="18.92" height="712.83" style="fill: rgb(85,255,85); fill-opacity: 1.0" clip-path="url(#_8305175092199clip-2)"/><g ><text x="692.36" y="105.69" style="fill: rgb(0,0,0); fill-opacity: 1.0; font-family: Tahoma; font-size: 12px;" clip-path="url(#_8305175092199clip-2)">47 724,488</text></g><rect x="757.76" y="816.56" width="18.92" height="6.44" style="fill: rgb(255,85,85); fill-opacity: 1.0" clip-path="url(#_8305175092199clip-2)"/><g ><text x="745.72" y="812.08" style="fill: rgb(0,0,0); fill-opacity: 1.0; font-family: Tahoma; font-size: 12px;" clip-path="url(#_8305175092199clip-2)">431,119</text></g><rect x="788.02" y="815.75" width="18.92" height="7.25" style="fill: rgb(85,85,255); fill-opacity: 1.0" clip-path="url(#_8305175092199clip-2)"/><g ><text x="775.98" y="811.27" style="fill: rgb(0,0,0); fill-opacity: 1.0; font-family: Tahoma; font-size: 12px;" clip-path="url(#_8305175092199clip-2)">485,279</text></g><rect x="818.29" y="148.52" width="18.92" height="674.48" style="fill: rgb(85,255,85); fill-opacity: 1.0" clip-path="url(#_8305175092199clip-2)"/><g ><text x="797.75" y="144.04" style="fill: rgb(0,0,0); fill-opacity: 1.0; font-family: Tahoma; font-size: 12px;" clip-path="url(#_8305175092199clip-2)">45 157,032</text></g><rect x="863.15" y="816.79" width="18.92" height="6.21" style="fill: rgb(255,85,85); fill-opacity: 1.0" clip-path="url(#_8305175092199clip-2)"/><g ><text x="851.11" y="812.31" style="fill: rgb(0,0,0); fill-opacity: 1.0; font-family: Tahoma; font-size: 12px;" clip-path="url(#_8305175092199clip-2)">416,036</text></g><rect x="893.42" y="816.07" width="18.92" height="6.93" style="fill: rgb(85,85,255); fill-opacity: 1.0" clip-path="url(#_8305175092199clip-2)"/><g ><text x="881.38" y="811.59" style="fill: rgb(0,0,0); fill-opacity: 1.0; font-family: Tahoma; font-size: 12px;" clip-path="url(#_8305175092199clip-2)">464,143</text></g><rect x="923.68" y="107.78" width="18.92" height="715.22" style="fill: rgb(85,255,85); fill-opacity: 1.0" clip-path="url(#_8305175092199clip-2)"/><g ><text x="903.14" y="103.3" style="fill: rgb(0,0,0); fill-opacity: 1.0; font-family: Tahoma; font-size: 12px;" clip-path="url(#_8305175092199clip-2)">47 884,638</text></g><rect x="80" y="35" width="908" height="788" style="stroke-width: 0.5;stroke: rgb(0,0,0);stroke-opacity: 1.0;stroke-linecap: round;stroke-linejoin: round;stroke-miterlimit: 10;shape-rendering:crispEdges;; fill: none" clip-path="url(#_8305175092199clip-0)"/></svg>
