<!DOCTYPE svg PUBLIC "-//W3C//DTD SVG 1.1//EN" "http://www.w3.org/Graphics/SVG/1.1/DTD/svg11.dtd">
<svg xmlns="http://www.w3.org/2000/svg" xmlns:xlink="http://www.w3.org/1999/xlink" xmlns:jfreesvg="http://www.jfree.org/jfreesvg/svg" width="900" height="1000" text-rendering="auto" shape-rendering="auto">
<defs><clipPath id="_13451207199183clip-0"><path d="M 0 0 L 900 0 L 900 1000 L 0 1000 L 0 0 Z "/></clipPath>
<clipPath id="_13451207199183clip-1"><path d="M 498 456 L 498 1356 L -502 1356 L -502 456 L 498 456 Z "/></clipPath>
<clipPath id="_13451207199183clip-2"><path d="M 83 38 L 83 916 L 888 916 L 888 38 Z "/></clipPath>
</defs>
<rect x="0" y="0" width="900" height="1000" style="fill: rgb(255,255,255); fill-opacity: 1.0" clip-path="url(#_13451207199183clip-0)"/><g ><text x="123.5" y="22.38" style="fill: rgb(0,0,0); fill-opacity: 1.0; font-family: sans-serif; font-size: 20px; font-weight: bold;" clip-path="url(#_13451207199183clip-0)">Changing the price of the Harry Potter book Cost in BLR: 350.2000</text></g><rect x="387.5" y="976" width="125" height="23" style="fill: rgb(255,255,255); fill-opacity: 1.0" clip-path="url(#_13451207199183clip-0)"/><g style="fill: rgb(255,85,85); fill-opacity: 1.0; stroke: none" clip-path="url(#_13451207199183clip-0)"><path d="M 390.5 983.5 L 398.5 983.5 L 398.5 991.5 L 390.5 991.5 L 390.5 983.5 Z "/></g><g ><text x="402.5" y="991.83" style="fill: rgb(64,64,64); fill-opacity: 1.0; font-family: sans-serif; font-size: 12px;" clip-path="url(#_13451207199183clip-0)">EUR</text></g><g style="fill: rgb(85,85,255); fill-opacity: 1.0; stroke: none" clip-path="url(#_13451207199183clip-0)"><path d="M 431.5 983.5 L 439.5 983.5 L 439.5 991.5 L 431.5 991.5 L 431.5 983.5 Z "/></g><g ><text x="443.5" y="991.83" style="fill: rgb(64,64,64); fill-opacity: 1.0; font-family: sans-serif; font-size: 12px;" clip-path="url(#_13451207199183clip-0)">USD</text></g><g style="fill: rgb(85,255,85); fill-opacity: 1.0; stroke: none" clip-path="url(#_13451207199183clip-0)"><path d="M 473.5 983.5 L 481.5 983.5 L 481.5 991.5 L 473.5 991.5 L 473.5 983.5 Z "/></g><g ><text x="485.5" y="991.83" style="fill: rgb(64,64,64); fill-opacity: 1.0; font-family: sans-serif; font-size: 12px;" clip-path="url(#_13451207199183clip-0)">RUB</text></g><rect x="83" y="38" width="805" height="878" style="fill: rgb(192,192,192); fill-opacity: 1.0" clip-path="url(#_13451207199183clip-0)"/><line x1="83" y1="920" x2="888" y2="920" style="stroke-width: 0.5;stroke: rgb(128,128,128);stroke-opacity: 1.0;stroke-linecap: square;stroke-miterlimit: 10;shape-rendering:crispEdges;" clip-path="url(#_13451207199183clip-0)"/><line x1="158.47" y1="920" x2="158.47" y2="920" style="stroke-width: 0.5;stroke: rgb(128,128,128);stroke-opacity: 1.0;stroke-linecap: square;stroke-miterlimit: 10;shape-rendering:crispEdges;" clip-path="url(#_13451207199183clip-0)"/><line x1="158.47" y1="920" x2="158.47" y2="922" style="stroke-width: 0.5;stroke: rgb(128,128,128);stroke-opacity: 1.0;stroke-linecap: square;stroke-miterlimit: 10;shape-rendering:crispEdges;" clip-path="url(#_13451207199183clip-0)"/><line x1="251.91" y1="920" x2="251.91" y2="920" style="stroke-width: 0.5;stroke: rgb(128,128,128);stroke-opacity: 1.0;stroke-linecap: square;stroke-miterlimit: 10;shape-rendering:crispEdges;" clip-path="url(#_13451207199183clip-0)"/><line x1="251.91" y1="920" x2="251.91" y2="922" style="stroke-width: 0.5;stroke: rgb(128,128,128);stroke-opacity: 1.0;stroke-linecap: square;stroke-miterlimit: 10;shape-rendering:crispEdges;" clip-path="url(#_13451207199183clip-0)"/><line x1="345.34" y1="920" x2="345.34" y2="920" style="stroke-width: 0.5;stroke: rgb(128,128,128);stroke-opacity: 1.0;stroke-linecap: square;stroke-miterlimit: 10;shape-rendering:crispEdges;" clip-path="url(#_13451207199183clip-0)"/><line x1="345.34" y1="920" x2="345.34" y2="922" style="stroke-width: 0.5;stroke: rgb(128,128,128);stroke-opacity: 1.0;stroke-linecap: square;stroke-miterlimit: 10;shape-rendering:crispEdges;" clip-path="url(#_13451207199183clip-0)"/><line x1="438.78" y1="920" x2="438.78" y2="920" style="stroke-width: 0.5;stroke: rgb(128,128,128);stroke-opacity: 1.0;stroke-linecap: square;stroke-miterlimit: 10;shape-rendering:crispEdges;" clip-path="url(#_13451207199183clip-0)"/><line x1="438.78" y1="920" x2="438.78" y2="922" style="stroke-width: 0.5;stroke: rgb(128,128,128);stroke-opacity: 1.0;stroke-linecap: square;stroke-miterlimit: 10;shape-rendering:crispEdges;" clip-path="url(#_13451207199183clip-0)"/><line x1="532.22" y1="920" x2="532.22" y2="920" style="stroke-width: 0.5;stroke: rgb(128,128,128);stroke-opacity: 1.0;stroke-linecap: square;stroke-miterlimit: 10;shape-rendering:crispEdges;" clip-path="url(#_13451207199183clip-0)"/><line x1="532.22" y1="920" x2="532.22" y2="922" style="stroke-width: 0.5;stroke: rgb(128,128,128);stroke-opacity: 1.0;stroke-linecap: square;stroke-miterlimit: 10;shape-rendering:crispEdges;" clip-path="url(#_13451207199183clip-0)"/><line x1="625.66" y1="920" x2="625.66" y2="920" style="stroke-width: 0.5;stroke: rgb(128,128,128);stroke-opacity: 1.0;stroke-linecap: square;stroke-miterlimit: 10;shape-rendering:crispEdges;" clip-path="url(#_13451207199183clip-0)"/><line x1="625.66" y1="920" x2="625.66" y2="922" style="stroke-width: 0.5;stroke: rgb(128,128,128);stroke-opacity: 1.0;stroke-linecap: square;stroke-miterlimit: 10;shape-rendering:crispEdges;" clip-path="url(#_13451207199183clip-0)"/><line x1="719.09" y1="920" x2="719.09" y2="920" style="stroke-width: 0.5;stroke: rgb(128,128,128);stroke-opacity: 1.0;stroke-linecap: square;stroke-miterlimit: 10;shape-rendering:crispEdges;" clip-path="url(#_13451207199183clip-0)"/><line x1="719.09" y1="920" x2="719.09" y2="922" style="stroke-width: 0.5;stroke: rgb(128,128,128);stroke-opacity: 1.0;stroke-linecap: square;stroke-miterlimit: 10;shape-rendering:crispEdges;" clip-path="url(#_13451207199183clip-0)"/><line x1="812.53" y1="920" x2="812.53" y2="920" style="stroke-width: 0.5;stroke: rgb(128,128,128);stroke-opacity: 1.0;stroke-linecap: square;stroke-miterlimit: 10;shape-rendering:crispEdges;" clip-path="url(#_13451207199183clip-0)"/><line x1="812.53" y1="920" x2="812.53" y2="922" style="stroke-width: 0.5;stroke: rgb(128,128,128);stroke-opacity: 1.0;stroke-linecap: square;stroke-miterlimit: 10;shape-rendering:crispEdges;" clip-path="url(#_13451207199183clip-0)"/><g ><text x="127.97" y="938.83" style="fill: rgb(64,64,64); fill-opacity: 1.0; font-family: sans-serif; font-size: 12px;" clip-path="url(#_13451207199183clip-0)">16.03.2022</text></g><g ><text x="221.41" y="938.83" style="fill: rgb(64,64,64); fill-opacity: 1.0; font-family: sans-serif; font-size: 12px;" clip-path="url(#_13451207199183clip-0)">17.03.2022</text></g><g ><text x="314.84" y="938.83" style="fill: rgb(64,64,64); fill-opacity: 1.0; font-family: sans-serif; font-size: 12px;" clip-path="url(#_13451207199183clip-0)">18.03.2022</text></g><g ><text x="408.28" y="938.83" style="fill: rgb(64,64,64); fill-opacity: 1.0; font-family: sans-serif; font-size: 12px;" clip-path="url(#_13451207199183clip-0)">21.03.2022</text></g><g ><text x="501.72" y="938.83" style="fill: rgb(64,64,64); fill-opacity: 1.0; font-family: sans-serif; font-size: 12px;" clip-path="url(#_13451207199183clip-0)">22.03.2022</text></g><g ><text x="595.16" y="938.83" style="fill: rgb(64,64,64); fill-opacity: 1.0; font-family: sans-serif; font-size: 12px;" clip-path="url(#_13451207199183clip-0)">23.03.2022</text></g><g ><text x="688.59" y="938.83" style="fill: rgb(64,64,64); fill-opacity: 1.0; font-family: sans-serif; font-size: 12px;" clip-path="url(#_13451207199183clip-0)">24.03.2022</text></g><g ><text x="782.03" y="938.83" style="fill: rgb(64,64,64); fill-opacity: 1.0; font-family: sans-serif; font-size: 12px;" clip-path="url(#_13451207199183clip-0)">25.03.2022</text></g><g ><text x="469" y="965.9" style="fill: rgb(64,64,64); fill-opacity: 1.0; font-family: sans-serif; font-size: 14px; font-weight: bold;" clip-path="url(#_13451207199183clip-0)">Date</text></g><line x1="79" y1="38" x2="79" y2="916" style="stroke-width: 0.5;stroke: rgb(128,128,128);stroke-opacity: 1.0;stroke-linecap: square;stroke-miterlimit: 10;shape-rendering:crispEdges;" clip-path="url(#_13451207199183clip-0)"/><g ><text x="66" y="920.98" style="fill: rgb(64,64,64); fill-opacity: 1.0; font-family: sans-serif; font-size: 12px;" clip-path="url(#_13451207199183clip-0)">0</text></g><line x1="77" y1="916" x2="79" y2="916" style="stroke-width: 0.5;stroke: rgb(128,128,128);stroke-opacity: 1.0;stroke-linecap: square;stroke-miterlimit: 10;shape-rendering:crispEdges;" clip-path="url(#_13451207199183clip-0)"/><g ><text x="52" y="881.47" style="fill: rgb(64,64,64); fill-opacity: 1.0; font-family: sans-serif; font-size: 12px;" clip-path="url(#_13451207199183clip-0)">500</text></g><line x1="77" y1="876.48" x2="79" y2="876.48" style="stroke-width: 0.5;stroke: rgb(128,128,128);stroke-opacity: 1.0;stroke-linecap: square;stroke-miterlimit: 10;shape-rendering:crispEdges;" clip-path="url(#_13451207199183clip-0)"/><g ><text x="42" y="841.95" style="fill: rgb(64,64,64); fill-opacity: 1.0; font-family: sans-serif; font-size: 12px;" clip-path="url(#_13451207199183clip-0)">1 000</text></g><line x1="77" y1="836.97" x2="79" y2="836.97" style="stroke-width: 0.5;stroke: rgb(128,128,128);stroke-opacity: 1.0;stroke-linecap: square;stroke-miterlimit: 10;shape-rendering:crispEdges;" clip-path="url(#_13451207199183clip-0)"/><g ><text x="42" y="802.43" style="fill: rgb(64,64,64); fill-opacity: 1.0; font-family: sans-serif; font-size: 12px;" clip-path="url(#_13451207199183clip-0)">1 500</text></g><line x1="77" y1="797.45" x2="79" y2="797.45" style="stroke-width: 0.5;stroke: rgb(128,128,128);stroke-opacity: 1.0;stroke-linecap: square;stroke-miterlimit: 10;shape-rendering:crispEdges;" clip-path="url(#_13451207199183clip-0)"/><g ><text x="42" y="762.91" style="fill: rgb(64,64,64); fill-opacity: 1.0; font-family: sans-serif; font-size: 12px;" clip-path="url(#_13451207199183clip-0)">2 000</text></g><line x1="77" y1="757.93" x2="79" y2="757.93" style="stroke-width: 0.5;stroke: rgb(128,128,128);stroke-opacity: 1.0;stroke-linecap: square;stroke-miterlimit: 10;shape-rendering:crispEdges;" clip-path="url(#_13451207199183clip-0)"/><g ><text x="42" y="723.4" style="fill: rgb(64,64,64); fill-opacity: 1.0; font-family: sans-serif; font-size: 12px;" clip-path="url(#_13451207199183clip-0)">2 500</text></g><line x1="77" y1="718.41" x2="79" y2="718.41" style="stroke-width: 0.5;stroke: rgb(128,128,128);stroke-opacity: 1.0;stroke-linecap: square;stroke-miterlimit: 10;shape-rendering:crispEdges;" clip-path="url(#_13451207199183clip-0)"/><g ><text x="42" y="683.88" style="fill: rgb(64,64,64); fill-opacity: 1.0; font-family: sans-serif; font-size: 12px;" clip-path="url(#_13451207199183clip-0)">3 000</text></g><line x1="77" y1="678.9" x2="79" y2="678.9" style="stroke-width: 0.5;stroke: rgb(128,128,128);stroke-opacity: 1.0;stroke-linecap: square;stroke-miterlimit: 10;shape-rendering:crispEdges;" clip-path="url(#_13451207199183clip-0)"/><g ><text x="42" y="644.36" style="fill: rgb(64,64,64); fill-opacity: 1.0; font-family: sans-serif; font-size: 12px;" clip-path="url(#_13451207199183clip-0)">3 500</text></g><line x1="77" y1="639.38" x2="79" y2="639.38" style="stroke-width: 0.5;stroke: rgb(128,128,128);stroke-opacity: 1.0;stroke-linecap: square;stroke-miterlimit: 10;shape-rendering:crispEdges;" clip-path="url(#_13451207199183clip-0)"/><g ><text x="42" y="604.85" style="fill: rgb(64,64,64); fill-opacity: 1.0; font-family: sans-serif; font-size: 12px;" clip-path="url(#_13451207199183clip-0)">4 000</text></g><line x1="77" y1="599.86" x2="79" y2="599.86" style="stroke-width: 0.5;stroke: rgb(128,128,128);stroke-opacity: 1.0;stroke-linecap: square;stroke-miterlimit: 10;shape-rendering:crispEdges;" clip-path="url(#_13451207199183clip-0)"/><g ><text x="42" y="565.33" style="fill: rgb(64,64,64); fill-opacity: 1.0; font-family: sans-serif; font-size: 12px;" clip-path="url(#_13451207199183clip-0)">4 500</text></g><line x1="77" y1="560.34" x2="79" y2="560.34" style="stroke-width: 0.5;stroke: rgb(128,128,128);stroke-opacity: 1.0;stroke-linecap: square;stroke-miterlimit: 10;shape-rendering:crispEdges;" clip-path="url(#_13451207199183clip-0)"/><g ><text x="42" y="525.81" style="fill: rgb(64,64,64); fill-opacity: 1.0; font-family: sans-serif; font-size: 12px;" clip-path="url(#_13451207199183clip-0)">5 000</text></g><line x1="77" y1="520.83" x2="79" y2="520.83" style="stroke-width: 0.5;stroke: rgb(128,128,128);stroke-opacity: 1.0;stroke-linecap: square;stroke-miterlimit: 10;shape-rendering:crispEdges;" clip-path="url(#_13451207199183clip-0)"/><g ><text x="42" y="486.29" style="fill: rgb(64,64,64); fill-opacity: 1.0; font-family: sans-serif; font-size: 12px;" clip-path="url(#_13451207199183clip-0)">5 500</text></g><line x1="77" y1="481.31" x2="79" y2="481.31" style="stroke-width: 0.5;stroke: rgb(128,128,128);stroke-opacity: 1.0;stroke-linecap: square;stroke-miterlimit: 10;shape-rendering:crispEdges;" clip-path="url(#_13451207199183clip-0)"/><g ><text x="42" y="446.78" style="fill: rgb(64,64,64); fill-opacity: 1.0; font-family: sans-serif; font-size: 12px;" clip-path="url(#_13451207199183clip-0)">6 000</text></g><line x1="77" y1="441.79" x2="79" y2="441.79" style="stroke-width: 0.5;stroke: rgb(128,128,128);stroke-opacity: 1.0;stroke-linecap: square;stroke-miterlimit: 10;shape-rendering:crispEdges;" clip-path="url(#_13451207199183clip-0)"/><g ><text x="42" y="407.26" style="fill: rgb(64,64,64); fill-opacity: 1.0; font-family: sans-serif; font-size: 12px;" clip-path="url(#_13451207199183clip-0)">6 500</text></g><line x1="77" y1="402.28" x2="79" y2="402.28" style="stroke-width: 0.5;stroke: rgb(128,128,128);stroke-opacity: 1.0;stroke-linecap: square;stroke-miterlimit: 10;shape-rendering:crispEdges;" clip-path="url(#_13451207199183clip-0)"/><g ><text x="42" y="367.74" style="fill: rgb(64,64,64); fill-opacity: 1.0; font-family: sans-serif; font-size: 12px;" clip-path="url(#_13451207199183clip-0)">7 000</text></g><line x1="77" y1="362.76" x2="79" y2="362.76" style="stroke-width: 0.5;stroke: rgb(128,128,128);stroke-opacity: 1.0;stroke-linecap: square;stroke-miterlimit: 10;shape-rendering:crispEdges;" clip-path="url(#_13451207199183clip-0)"/><g ><text x="42" y="328.22" style="fill: rgb(64,64,64); fill-opacity: 1.0; font-family: sans-serif; font-size: 12px;" clip-path="url(#_13451207199183clip-0)">7 500</text></g><line x1="77" y1="323.24" x2="79" y2="323.24" style="stroke-width: 0.5;stroke: rgb(128,128,128);stroke-opacity: 1.0;stroke-linecap: square;stroke-miterlimit: 10;shape-rendering:crispEdges;" clip-path="url(#_13451207199183clip-0)"/><g ><text x="42" y="288.71" style="fill: rgb(64,64,64); fill-opacity: 1.0; font-family: sans-serif; font-size: 12px;" clip-path="url(#_13451207199183clip-0)">8 000</text></g><line x1="77" y1="283.72" x2="79" y2="283.72" style="stroke-width: 0.5;stroke: rgb(128,128,128);stroke-opacity: 1.0;stroke-linecap: square;stroke-miterlimit: 10;shape-rendering:crispEdges;" clip-path="url(#_13451207199183clip-0)"/><g ><text x="42" y="249.19" style="fill: rgb(64,64,64); fill-opacity: 1.0; font-family: sans-serif; font-size: 12px;" clip-path="url(#_13451207199183clip-0)">8 500</text></g><line x1="77" y1="244.21" x2="79" y2="244.21" style="stroke-width: 0.5;stroke: rgb(128,128,128);stroke-opacity: 1.0;stroke-linecap: square;stroke-miterlimit: 10;shape-rendering:crispEdges;" clip-path="url(#_13451207199183clip-0)"/><g ><text x="42" y="209.67" style="fill: rgb(64,64,64); fill-opacity: 1.0; font-family: sans-serif; font-size: 12px;" clip-path="url(#_13451207199183clip-0)">9 000</text></g><line x1="77" y1="204.69" x2="79" y2="204.69" style="stroke-width: 0.5;stroke: rgb(128,128,128);stroke-opacity: 1.0;stroke-linecap: square;stroke-miterlimit: 10;shape-rendering:crispEdges;" clip-path="url(#_13451207199183clip-0)"/><g ><text x="42" y="170.16" style="fill: rgb(64,64,64); fill-opacity: 1.0; font-family: sans-serif; font-size: 12px;" clip-path="url(#_13451207199183clip-0)">9 500</text></g><line x1="77" y1="165.17" x2="79" y2="165.17" style="stroke-width: 0.5;stroke: rgb(128,128,128);stroke-opacity: 1.0;stroke-linecap: square;stroke-miterlimit: 10;shape-rendering:crispEdges;" clip-path="url(#_13451207199183clip-0)"/><g ><text x="36" y="130.64" style="fill: rgb(64,64,64); fill-opacity: 1.0; font-family: sans-serif; font-size: 12px;" clip-path="url(#_13451207199183clip-0)">10 000</text></g><line x1="77" y1="125.65" x2="79" y2="125.65" style="stroke-width: 0.5;stroke: rgb(128,128,128);stroke-opacity: 1.0;stroke-linecap: square;stroke-miterlimit: 10;shape-rendering:crispEdges;" clip-path="url(#_13451207199183clip-0)"/><g ><text x="36" y="91.12" style="fill: rgb(64,64,64); fill-opacity: 1.0; font-family: sans-serif; font-size: 12px;" clip-path="url(#_13451207199183clip-0)">10 500</text></g><line x1="77" y1="86.14" x2="79" y2="86.14" style="stroke-width: 0.5;stroke: rgb(128,128,128);stroke-opacity: 1.0;stroke-linecap: square;stroke-miterlimit: 10;shape-rendering:crispEdges;" clip-path="url(#_13451207199183clip-0)"/><g ><text x="36" y="51.6" style="fill: rgb(64,64,64); fill-opacity: 1.0; font-family: sans-serif; font-size: 12px;" clip-path="url(#_13451207199183clip-0)">11 000</text></g><line x1="77" y1="46.62" x2="79" y2="46.62" style="stroke-width: 0.5;stroke: rgb(128,128,128);stroke-opacity: 1.0;stroke-linecap: square;stroke-miterlimit: 10;shape-rendering:crispEdges;" clip-path="url(#_13451207199183clip-0)"/><g style="fill: rgb(64,64,64); fill-opacity: 1.0; stroke: none" transform="matrix(0,-1,1,0,-456,498)" clip-path="url(#_13451207199183clip-1)"><path d="M -39.48 483.04 Q -40.77 483.04 -41.58 482.04 Q -42.38 481.04 -42.38 479.09 Q -42.38 477.13 -41.56 476.13 Q -40.75 475.12 -39.44 475.12 Q -38.61 475.12 -38.08 475.44 Q -37.55 475.76 -37.23 476.24 L -37.16 476.24 Q -37.2 476.01 -37.27 475.59 Q -37.31 475.16 -37.31 474.71 L -37.31 472.26 L -35.23 472.26 L -35.23 482.9 L -36.83 482.9 L -37.23 481.9 L -37.31 481.9 Q -37.62 482.38 -38.14 482.71 Q -38.66 483.04 -39.48 483.04 Z  M -38.77 481.37 Q -37.89 481.37 -37.55 480.87 Q -37.19 480.35 -37.17 479.34 L -37.17 479.1 Q -37.17 477.99 -37.52 477.4 Q -37.86 476.8 -38.78 476.8 Q -39.47 476.8 -39.86 477.4 Q -40.25 477.99 -40.25 479.12 Q -40.25 480.24 -39.86 480.8 Q -39.47 481.37 -38.77 481.37 Z  M -32 472.26 Q -31.53 472.26 -31.2 472.48 Q -30.86 472.69 -30.86 473.27 Q -30.86 473.85 -31.2 474.09 Q -31.53 474.3 -32 474.3 Q -32.47 474.3 -32.79 474.09 Q -33.12 473.85 -33.12 473.27 Q -33.12 472.69 -32.79 472.48 Q -32.47 472.26 -32 472.26 Z  M -30.97 475.26 L -30.97 482.9 L -33.04 482.9 L -33.04 475.26 L -30.97 475.26 Z  M -24.56 476.82 L -26.35 476.82 L -26.35 482.9 L -28.45 482.9 L -28.45 476.82 L -29.59 476.82 L -29.59 475.82 L -28.45 475.26 L -28.45 474.69 Q -28.45 473.71 -28.12 473.18 Q -27.77 472.63 -27.18 472.41 Q -26.57 472.19 -25.74 472.19 Q -25.12 472.19 -24.63 472.29 Q -24.13 472.38 -23.82 472.51 L -24.35 474.04 Q -24.59 473.96 -24.87 473.9 Q -25.15 473.84 -25.51 473.84 Q -25.95 473.84 -26.15 474.1 Q -26.35 474.37 -26.35 474.77 L -26.35 475.26 L -24.56 475.26 L -24.56 476.82 Z  M -19.14 476.82 L -20.93 476.82 L -20.93 482.9 L -23.03 482.9 L -23.03 476.82 L -24.17 476.82 L -24.17 475.82 L -23.03 475.26 L -23.03 474.69 Q -23.03 473.71 -22.7 473.18 Q -22.36 472.63 -21.76 472.41 Q -21.15 472.19 -20.33 472.19 Q -19.7 472.19 -19.22 472.29 Q -18.72 472.38 -18.4 472.51 L -18.93 474.04 Q -19.17 473.96 -19.45 473.9 Q -19.73 473.84 -20.09 473.84 Q -20.53 473.84 -20.73 474.1 Q -20.93 474.37 -20.93 474.77 L -20.93 475.26 L -19.14 475.26 L -19.14 476.82 Z  M -14.8 475.12 Q -13.2 475.12 -12.28 476.02 Q -11.36 476.91 -11.36 478.59 L -11.36 479.6 L -16.28 479.6 Q -16.27 480.48 -15.77 480.99 Q -15.27 481.49 -14.39 481.49 Q -13.64 481.49 -13.05 481.35 Q -12.44 481.19 -11.8 480.88 L -11.8 482.49 Q -12.36 482.77 -12.99 482.9 Q -13.59 483.04 -14.49 483.04 Q -15.63 483.04 -16.52 482.62 Q -17.39 482.18 -17.91 481.32 Q -18.41 480.44 -18.41 479.13 Q -18.41 477.79 -17.95 476.9 Q -17.49 476.01 -16.69 475.57 Q -15.88 475.12 -14.8 475.12 Z  M -14.78 476.6 Q -15.38 476.6 -15.78 476.99 Q -16.17 477.38 -16.25 478.21 L -13.31 478.21 Q -13.33 477.51 -13.69 477.05 Q -14.03 476.6 -14.78 476.6 Z  M -5.4 475.12 Q -5.24 475.12 -5.04 475.13 Q -4.82 475.15 -4.7 475.16 L -4.85 477.13 Q -4.95 477.1 -5.13 477.09 Q -5.32 477.05 -5.46 477.05 Q -5.99 477.05 -6.49 477.26 Q -6.98 477.44 -7.29 477.87 Q -7.59 478.27 -7.59 479.01 L -7.59 482.9 L -9.66 482.9 L -9.66 475.26 L -8.09 475.26 L -7.77 476.54 L -7.68 476.54 Q -7.34 475.96 -6.76 475.54 Q -6.16 475.12 -5.4 475.12 Z  M -0.17 475.12 Q 1.43 475.12 2.35 476.02 Q 3.27 476.91 3.27 478.59 L 3.27 479.6 L -1.65 479.6 Q -1.64 480.48 -1.14 480.99 Q -0.64 481.49 0.24 481.49 Q 0.99 481.49 1.58 481.35 Q 2.19 481.19 2.83 480.88 L 2.83 482.49 Q 2.27 482.77 1.64 482.9 Q 1.04 483.04 0.14 483.04 Q -1 483.04 -1.89 482.62 Q -2.76 482.18 -3.28 481.32 Q -3.78 480.44 -3.78 479.13 Q -3.78 477.79 -3.32 476.9 Q -2.86 476.01 -2.06 475.57 Q -1.25 475.12 -0.17 475.12 Z  M -0.15 476.6 Q -0.75 476.6 -1.15 476.99 Q -1.54 477.38 -1.62 478.21 L 1.32 478.21 Q 1.3 477.51 0.94 477.05 Q 0.6 476.6 -0.15 476.6 Z  M 9.31 475.12 Q 10.53 475.12 11.26 475.79 Q 12.01 476.44 12.01 477.91 L 12.01 482.9 L 9.93 482.9 L 9.93 478.43 Q 9.93 477.6 9.64 477.19 Q 9.34 476.77 8.7 476.77 Q 7.75 476.77 7.39 477.43 Q 7.04 478.09 7.04 479.3 L 7.04 482.9 L 4.97 482.9 L 4.97 475.26 L 6.56 475.26 L 6.84 476.24 L 6.95 476.24 Q 7.31 475.65 7.95 475.38 Q 8.59 475.12 9.31 475.12 Z  M 17.38 481.37 Q 17.73 481.37 18.05 481.3 Q 18.38 481.23 18.69 481.13 L 18.69 482.69 Q 18.37 482.84 17.87 482.93 Q 17.37 483.04 16.77 483.04 Q 16.1 483.04 15.55 482.82 Q 15.02 482.59 14.69 482.04 Q 14.38 481.49 14.38 480.51 L 14.38 476.82 L 13.4 476.82 L 13.4 475.94 L 14.54 475.24 L 15.15 473.63 L 16.48 473.63 L 16.48 475.26 L 18.62 475.26 L 18.62 476.82 L 16.48 476.82 L 16.48 480.51 Q 16.48 480.94 16.73 481.16 Q 16.98 481.37 17.38 481.37 Z  M 26.99 483.04 Q 25.27 483.04 24.33 482.1 Q 23.41 481.15 23.41 479.12 Q 23.41 477.71 23.88 476.84 Q 24.36 475.96 25.21 475.54 Q 26.07 475.12 27.16 475.12 Q 27.96 475.12 28.54 475.27 Q 29.11 475.43 29.55 475.63 L 28.93 477.24 Q 28.44 477.04 28 476.91 Q 27.58 476.79 27.16 476.79 Q 25.55 476.79 25.55 479.1 Q 25.55 480.26 25.97 480.8 Q 26.4 481.35 27.16 481.35 Q 27.83 481.35 28.33 481.18 Q 28.83 480.99 29.32 480.68 L 29.32 482.46 Q 28.83 482.77 28.3 482.9 Q 27.79 483.04 26.99 483.04 Z  M 38.09 475.26 L 38.09 482.9 L 36.5 482.9 L 36.22 481.91 L 36.11 481.91 Q 35.73 482.51 35.09 482.77 Q 34.47 483.04 33.75 483.04 Q 32.51 483.04 31.76 482.38 Q 31.03 481.71 31.03 480.24 L 31.03 475.26 L 33.12 475.26 L 33.12 479.73 Q 33.12 480.54 33.4 480.96 Q 33.7 481.37 34.36 481.37 Q 35.29 481.37 35.64 480.73 Q 36 480.07 36 478.85 L 36 475.26 L 38.09 475.26 Z  M 44.54 475.12 Q 44.7 475.12 44.9 475.13 Q 45.12 475.15 45.24 475.16 L 45.09 477.13 Q 44.99 477.1 44.8 477.09 Q 44.62 477.05 44.48 477.05 Q 43.95 477.05 43.45 477.26 Q 42.96 477.44 42.65 477.87 Q 42.35 478.27 42.35 479.01 L 42.35 482.9 L 40.27 482.9 L 40.27 475.26 L 41.85 475.26 L 42.16 476.54 L 42.26 476.54 Q 42.6 475.96 43.18 475.54 Q 43.77 475.12 44.54 475.12 Z  M 50.9 475.12 Q 51.05 475.12 51.25 475.13 Q 51.47 475.15 51.6 475.16 L 51.44 477.13 Q 51.35 477.1 51.16 477.09 Q 50.97 477.05 50.83 477.05 Q 50.3 477.05 49.8 477.26 Q 49.32 477.44 49 477.87 Q 48.71 478.27 48.71 479.01 L 48.71 482.9 L 46.63 482.9 L 46.63 475.26 L 48.21 475.26 L 48.52 476.54 L 48.61 476.54 Q 48.96 475.96 49.54 475.54 Q 50.13 475.12 50.9 475.12 Z  M 56.13 475.12 Q 57.72 475.12 58.64 476.02 Q 59.56 476.91 59.56 478.59 L 59.56 479.6 L 54.64 479.6 Q 54.66 480.48 55.16 480.99 Q 55.66 481.49 56.53 481.49 Q 57.28 481.49 57.88 481.35 Q 58.49 481.19 59.13 480.88 L 59.13 482.49 Q 58.56 482.77 57.94 482.9 Q 57.33 483.04 56.44 483.04 Q 55.3 483.04 54.41 482.62 Q 53.53 482.18 53.02 481.32 Q 52.52 480.44 52.52 479.13 Q 52.52 477.79 52.97 476.9 Q 53.44 476.01 54.24 475.57 Q 55.05 475.12 56.13 475.12 Z  M 56.14 476.6 Q 55.55 476.6 55.14 476.99 Q 54.75 477.38 54.67 478.21 L 57.61 478.21 Q 57.59 477.51 57.24 477.05 Q 56.89 476.6 56.14 476.6 Z  M 65.6 475.12 Q 66.82 475.12 67.56 475.79 Q 68.31 476.44 68.31 477.91 L 68.31 482.9 L 66.23 482.9 L 66.23 478.43 Q 66.23 477.6 65.93 477.19 Q 65.63 476.77 64.99 476.77 Q 64.04 476.77 63.68 477.43 Q 63.34 478.09 63.34 479.3 L 63.34 482.9 L 61.26 482.9 L 61.26 475.26 L 62.85 475.26 L 63.13 476.24 L 63.24 476.24 Q 63.6 475.65 64.24 475.38 Q 64.88 475.12 65.6 475.12 Z  M 73.57 483.04 Q 71.85 483.04 70.91 482.1 Q 69.99 481.15 69.99 479.12 Q 69.99 477.71 70.46 476.84 Q 70.94 475.96 71.79 475.54 Q 72.64 475.12 73.74 475.12 Q 74.54 475.12 75.11 475.27 Q 75.69 475.43 76.13 475.63 L 75.5 477.24 Q 75.02 477.04 74.58 476.91 Q 74.16 476.79 73.74 476.79 Q 72.13 476.79 72.13 479.1 Q 72.13 480.26 72.55 480.8 Q 72.97 481.35 73.74 481.35 Q 74.41 481.35 74.91 481.18 Q 75.41 480.99 75.89 480.68 L 75.89 482.46 Q 75.41 482.77 74.88 482.9 Q 74.36 483.04 73.57 483.04 Z  M 76.56 475.26 L 78.84 475.26 L 80.28 479.55 Q 80.4 479.87 80.45 480.19 Q 80.51 480.52 80.53 480.88 L 80.58 480.88 Q 80.62 480.52 80.7 480.19 Q 80.78 479.87 80.87 479.55 L 82.28 475.26 L 84.53 475.26 L 81.29 483.88 Q 80.86 485.07 80.01 485.66 Q 79.18 486.26 78.11 486.26 Q 77.75 486.26 77.48 486.23 Q 77.23 486.19 77.03 486.15 L 77.03 484.49 Q 77.18 484.52 77.4 484.55 Q 77.62 484.59 77.86 484.59 Q 78.51 484.59 78.9 484.18 Q 79.29 483.77 79.47 483.23 L 79.59 482.84 L 76.56 475.26 Z "/></g><line x1="83" y1="916" x2="888" y2="916" style="stroke-width: 0.5;stroke: rgb(255,255,255);stroke-opacity: 1.0;stroke-linejoin: bevel;stroke-miterlimit: 0;stroke-dasharray: 2.0, 2.0;shape-rendering:crispEdges;" clip-path="url(#_13451207199183clip-2)"/><line x1="83" y1="876.48" x2="888" y2="876.48" style="stroke-width: 0.5;stroke: rgb(255,255,255);stroke-opacity: 1.0;stroke-linejoin: bevel;stroke-miterlimit: 0;stroke-dasharray: 2.0, 2.0;shape-rendering:crispEdges;" clip-path="url(#_13451207199183clip-2)"/><line x1="83" y1="836.97" x2="888" y2="836.97" style="stroke-width: 0.5;stroke: rgb(255,255,255);stroke-opacity: 1.0;stroke-linejoin: bevel;stroke-miterlimit: 0;stroke-dasharray: 2.0, 2.0;shape-rendering:crispEdges;" clip-path="url(#_13451207199183clip-2)"/><line x1="83" y1="797.45" x2="888" y2="797.45" style="stroke-width: 0.5;stroke: rgb(255,255,255);stroke-opacity: 1.0;stroke-linejoin: bevel;stroke-miterlimit: 0;stroke-dasharray: 2.0, 2.0;shape-rendering:crispEdges;" clip-path="url(#_13451207199183clip-2)"/><line x1="83" y1="757.93" x2="888" y2="757.93" style="stroke-width: 0.5;stroke: rgb(255,255,255);stroke-opacity: 1.0;stroke-linejoin: bevel;stroke-miterlimit: 0;stroke-dasharray: 2.0, 2.0;shape-rendering:crispEdges;" clip-path="url(#_13451207199183clip-2)"/><line x1="83" y1="718.41" x2="888" y2="718.41" style="stroke-width: 0.5;stroke: rgb(255,255,255);stroke-opacity: 1.0;stroke-linejoin: bevel;stroke-miterlimit: 0;stroke-dasharray: 2.0, 2.0;shape-rendering:crispEdges;" clip-path="url(#_13451207199183clip-2)"/><line x1="83" y1="678.9" x2="888" y2="678.9" style="stroke-width: 0.5;stroke: rgb(255,255,255);stroke-opacity: 1.0;stroke-linejoin: bevel;stroke-miterlimit: 0;stroke-dasharray: 2.0, 2.0;shape-rendering:crispEdges;" clip-path="url(#_13451207199183clip-2)"/><line x1="83" y1="639.38" x2="888" y2="639.38" style="stroke-width: 0.5;stroke: rgb(255,255,255);stroke-opacity: 1.0;stroke-linejoin: bevel;stroke-miterlimit: 0;stroke-dasharray: 2.0, 2.0;shape-rendering:crispEdges;" clip-path="url(#_13451207199183clip-2)"/><line x1="83" y1="599.86" x2="888" y2="599.86" style="stroke-width: 0.5;stroke: rgb(255,255,255);stroke-opacity: 1.0;stroke-linejoin: bevel;stroke-miterlimit: 0;stroke-dasharray: 2.0, 2.0;shape-rendering:crispEdges;" clip-path="url(#_13451207199183clip-2)"/><line x1="83" y1="560.34" x2="888" y2="560.34" style="stroke-width: 0.5;stroke: rgb(255,255,255);stroke-opacity: 1.0;stroke-linejoin: bevel;stroke-miterlimit: 0;stroke-dasharray: 2.0, 2.0;shape-rendering:crispEdges;" clip-path="url(#_13451207199183clip-2)"/><line x1="83" y1="520.83" x2="888" y2="520.83" style="stroke-width: 0.5;stroke: rgb(255,255,255);stroke-opacity: 1.0;stroke-linejoin: bevel;stroke-miterlimit: 0;stroke-dasharray: 2.0, 2.0;shape-rendering:crispEdges;" clip-path="url(#_13451207199183clip-2)"/><line x1="83" y1="481.31" x2="888" y2="481.31" style="stroke-width: 0.5;stroke: rgb(255,255,255);stroke-opacity: 1.0;stroke-linejoin: bevel;stroke-miterlimit: 0;stroke-dasharray: 2.0, 2.0;shape-rendering:crispEdges;" clip-path="url(#_13451207199183clip-2)"/><line x1="83" y1="441.79" x2="888" y2="441.79" style="stroke-width: 0.5;stroke: rgb(255,255,255);stroke-opacity: 1.0;stroke-linejoin: bevel;stroke-miterlimit: 0;stroke-dasharray: 2.0, 2.0;shape-rendering:crispEdges;" clip-path="url(#_13451207199183clip-2)"/><line x1="83" y1="402.28" x2="888" y2="402.28" style="stroke-width: 0.5;stroke: rgb(255,255,255);stroke-opacity: 1.0;stroke-linejoin: bevel;stroke-miterlimit: 0;stroke-dasharray: 2.0, 2.0;shape-rendering:crispEdges;" clip-path="url(#_13451207199183clip-2)"/><line x1="83" y1="362.76" x2="888" y2="362.76" style="stroke-width: 0.5;stroke: rgb(255,255,255);stroke-opacity: 1.0;stroke-linejoin: bevel;stroke-miterlimit: 0;stroke-dasharray: 2.0, 2.0;shape-rendering:crispEdges;" clip-path="url(#_13451207199183clip-2)"/><line x1="83" y1="323.24" x2="888" y2="323.24" style="stroke-width: 0.5;stroke: rgb(255,255,255);stroke-opacity: 1.0;stroke-linejoin: bevel;stroke-miterlimit: 0;stroke-dasharray: 2.0, 2.0;shape-rendering:crispEdges;" clip-path="url(#_13451207199183clip-2)"/><line x1="83" y1="283.72" x2="888" y2="283.72" style="stroke-width: 0.5;stroke: rgb(255,255,255);stroke-opacity: 1.0;stroke-linejoin: bevel;stroke-miterlimit: 0;stroke-dasharray: 2.0, 2.0;shape-rendering:crispEdges;" clip-path="url(#_13451207199183clip-2)"/><line x1="83" y1="244.21" x2="888" y2="244.21" style="stroke-width: 0.5;stroke: rgb(255,255,255);stroke-opacity: 1.0;stroke-linejoin: bevel;stroke-miterlimit: 0;stroke-dasharray: 2.0, 2.0;shape-rendering:crispEdges;" clip-path="url(#_13451207199183clip-2)"/><line x1="83" y1="204.69" x2="888" y2="204.69" style="stroke-width: 0.5;stroke: rgb(255,255,255);stroke-opacity: 1.0;stroke-linejoin: bevel;stroke-miterlimit: 0;stroke-dasharray: 2.0, 2.0;shape-rendering:crispEdges;" clip-path="url(#_13451207199183clip-2)"/><line x1="83" y1="165.17" x2="888" y2="165.17" style="stroke-width: 0.5;stroke: rgb(255,255,255);stroke-opacity: 1.0;stroke-linejoin: bevel;stroke-miterlimit: 0;stroke-dasharray: 2.0, 2.0;shape-rendering:crispEdges;" clip-path="url(#_13451207199183clip-2)"/><line x1="83" y1="125.65" x2="888" y2="125.65" style="stroke-width: 0.5;stroke: rgb(255,255,255);stroke-opacity: 1.0;stroke-linejoin: bevel;stroke-miterlimit: 0;stroke-dasharray: 2.0, 2.0;shape-rendering:crispEdges;" clip-path="url(#_13451207199183clip-2)"/><line x1="83" y1="86.14" x2="888" y2="86.14" style="stroke-width: 0.5;stroke: rgb(255,255,255);stroke-opacity: 1.0;stroke-linejoin: bevel;stroke-miterlimit: 0;stroke-dasharray: 2.0, 2.0;shape-rendering:crispEdges;" clip-path="url(#_13451207199183clip-2)"/><line x1="83" y1="46.62" x2="888" y2="46.62" style="stroke-width: 0.5;stroke: rgb(255,255,255);stroke-opacity: 1.0;stroke-linejoin: bevel;stroke-miterlimit: 0;stroke-dasharray: 2.0, 2.0;shape-rendering:crispEdges;" clip-path="url(#_13451207199183clip-2)"/><rect x="123.25" y="910.61" width="16.77" height="5.39" style="fill: rgb(255,85,85); fill-opacity: 1.0" clip-path="url(#_13451207199183clip-2)"/><g ><text x="116.14" y="905.09" style="fill: rgb(0,0,0); fill-opacity: 1.0; font-family: sans-serif; font-size: 12px;" clip-path="url(#_13451207199183clip-2)">68,23</text></g><rect x="150.08" y="910.04" width="16.77" height="5.96" style="fill: rgb(85,85,255); fill-opacity: 1.0" clip-path="url(#_13451207199183clip-2)"/><g ><text x="139.47" y="904.53" style="fill: rgb(0,0,0); fill-opacity: 1.0; font-family: sans-serif; font-size: 12px;" clip-path="url(#_13451207199183clip-2)">75,373</text></g><rect x="176.92" y="259.04" width="16.77" height="656.96" style="fill: rgb(85,255,85); fill-opacity: 1.0" clip-path="url(#_13451207199183clip-2)"/><g ><text x="158.3" y="253.53" style="fill: rgb(0,0,0); fill-opacity: 1.0; font-family: sans-serif; font-size: 12px;" clip-path="url(#_13451207199183clip-2)">8 312,292</text></g><rect x="216.69" y="910.58" width="16.77" height="5.42" style="fill: rgb(255,85,85); fill-opacity: 1.0" clip-path="url(#_13451207199183clip-2)"/><g ><text x="209.57" y="905.07" style="fill: rgb(0,0,0); fill-opacity: 1.0; font-family: sans-serif; font-size: 12px;" clip-path="url(#_13451207199183clip-2)">68,55</text></g><rect x="243.52" y="910.03" width="16.77" height="5.97" style="fill: rgb(85,85,255); fill-opacity: 1.0" clip-path="url(#_13451207199183clip-2)"/><g ><text x="232.91" y="904.51" style="fill: rgb(0,0,0); fill-opacity: 1.0; font-family: sans-serif; font-size: 12px;" clip-path="url(#_13451207199183clip-2)">75,569</text></g><rect x="270.35" y="267.66" width="16.77" height="648.34" style="fill: rgb(85,255,85); fill-opacity: 1.0" clip-path="url(#_13451207199183clip-2)"/><g ><text x="251.74" y="262.14" style="fill: rgb(0,0,0); fill-opacity: 1.0; font-family: sans-serif; font-size: 12px;" clip-path="url(#_13451207199183clip-2)">8 203,279</text></g><rect x="310.12" y="910.58" width="16.77" height="5.42" style="fill: rgb(255,85,85); fill-opacity: 1.0" clip-path="url(#_13451207199183clip-2)"/><g ><text x="299.51" y="905.06" style="fill: rgb(0,0,0); fill-opacity: 1.0; font-family: sans-serif; font-size: 12px;" clip-path="url(#_13451207199183clip-2)">68,623</text></g><rect x="336.96" y="910" width="16.77" height="6" style="fill: rgb(85,85,255); fill-opacity: 1.0" clip-path="url(#_13451207199183clip-2)"/><g ><text x="326.34" y="904.49" style="fill: rgb(0,0,0); fill-opacity: 1.0; font-family: sans-serif; font-size: 12px;" clip-path="url(#_13451207199183clip-2)">75,873</text></g><rect x="363.79" y="288.24" width="16.77" height="627.76" style="fill: rgb(85,255,85); fill-opacity: 1.0" clip-path="url(#_13451207199183clip-2)"/><g ><text x="345.18" y="282.72" style="fill: rgb(0,0,0); fill-opacity: 1.0; font-family: sans-serif; font-size: 12px;" clip-path="url(#_13451207199183clip-2)">7 942,857</text></g><rect x="403.56" y="910.5" width="16.77" height="5.5" style="fill: rgb(255,85,85); fill-opacity: 1.0" clip-path="url(#_13451207199183clip-2)"/><g ><text x="396.45" y="904.99" style="fill: rgb(0,0,0); fill-opacity: 1.0; font-family: sans-serif; font-size: 12px;" clip-path="url(#_13451207199183clip-2)">69,56</text></g><rect x="430.4" y="909.92" width="16.77" height="6.08" style="fill: rgb(85,85,255); fill-opacity: 1.0" clip-path="url(#_13451207199183clip-2)"/><g ><text x="423.28" y="904.4" style="fill: rgb(0,0,0); fill-opacity: 1.0; font-family: sans-serif; font-size: 12px;" clip-path="url(#_13451207199183clip-2)">76,94</text></g><rect x="457.23" y="286.24" width="16.77" height="629.76" style="fill: rgb(85,255,85); fill-opacity: 1.0" clip-path="url(#_13451207199183clip-2)"/><g ><text x="438.61" y="280.72" style="fill: rgb(0,0,0); fill-opacity: 1.0; font-family: sans-serif; font-size: 12px;" clip-path="url(#_13451207199183clip-2)">7 968,153</text></g><rect x="497" y="910.53" width="16.77" height="5.47" style="fill: rgb(255,85,85); fill-opacity: 1.0" clip-path="url(#_13451207199183clip-2)"/><g ><text x="486.39" y="905.02" style="fill: rgb(0,0,0); fill-opacity: 1.0; font-family: sans-serif; font-size: 12px;" clip-path="url(#_13451207199183clip-2)">69,194</text></g><rect x="523.83" y="909.96" width="16.77" height="6.04" style="fill: rgb(85,85,255); fill-opacity: 1.0" clip-path="url(#_13451207199183clip-2)"/><g ><text x="513.22" y="904.44" style="fill: rgb(0,0,0); fill-opacity: 1.0; font-family: sans-serif; font-size: 12px;" clip-path="url(#_13451207199183clip-2)">76,481</text></g><rect x="550.67" y="282.2" width="16.77" height="633.8" style="fill: rgb(85,255,85); fill-opacity: 1.0" clip-path="url(#_13451207199183clip-2)"/><g ><text x="532.05" y="276.69" style="fill: rgb(0,0,0); fill-opacity: 1.0; font-family: sans-serif; font-size: 12px;" clip-path="url(#_13451207199183clip-2)">8 019,231</text></g><rect x="590.44" y="910.5" width="16.77" height="5.5" style="fill: rgb(255,85,85); fill-opacity: 1.0" clip-path="url(#_13451207199183clip-2)"/><g ><text x="579.82" y="904.99" style="fill: rgb(0,0,0); fill-opacity: 1.0; font-family: sans-serif; font-size: 12px;" clip-path="url(#_13451207199183clip-2)">69,558</text></g><rect x="617.27" y="909.94" width="16.77" height="6.06" style="fill: rgb(85,85,255); fill-opacity: 1.0" clip-path="url(#_13451207199183clip-2)"/><g ><text x="610.16" y="904.43" style="fill: rgb(0,0,0); fill-opacity: 1.0; font-family: sans-serif; font-size: 12px;" clip-path="url(#_13451207199183clip-2)">76,64</text></g><rect x="644.1" y="284.23" width="16.77" height="631.77" style="fill: rgb(85,255,85); fill-opacity: 1.0" clip-path="url(#_13451207199183clip-2)"/><g ><text x="628.49" y="278.71" style="fill: rgb(0,0,0); fill-opacity: 1.0; font-family: sans-serif; font-size: 12px;" clip-path="url(#_13451207199183clip-2)">7 993,61</text></g><rect x="683.88" y="909.39" width="16.77" height="6.61" style="fill: rgb(255,85,85); fill-opacity: 1.0" clip-path="url(#_13451207199183clip-2)"/><g ><text x="673.26" y="903.88" style="fill: rgb(0,0,0); fill-opacity: 1.0; font-family: sans-serif; font-size: 12px;" clip-path="url(#_13451207199183clip-2)">83,602</text></g><rect x="710.71" y="908.72" width="16.77" height="7.28" style="fill: rgb(85,85,255); fill-opacity: 1.0" clip-path="url(#_13451207199183clip-2)"/><g ><text x="703.59" y="903.2" style="fill: rgb(0,0,0); fill-opacity: 1.0; font-family: sans-serif; font-size: 12px;" clip-path="url(#_13451207199183clip-2)">92,14</text></g><rect x="737.54" y="157.98" width="16.77" height="758.02" style="fill: rgb(85,255,85); fill-opacity: 1.0" clip-path="url(#_13451207199183clip-2)"/><g ><text x="718.93" y="152.46" style="fill: rgb(0,0,0); fill-opacity: 1.0; font-family: sans-serif; font-size: 12px;" clip-path="url(#_13451207199183clip-2)">9 591,054</text></g><rect x="777.31" y="908.13" width="16.77" height="7.87" style="fill: rgb(255,85,85); fill-opacity: 1.0" clip-path="url(#_13451207199183clip-2)"/><g ><text x="766.7" y="902.61" style="fill: rgb(0,0,0); fill-opacity: 1.0; font-family: sans-serif; font-size: 12px;" clip-path="url(#_13451207199183clip-2)">99,633</text></g><rect x="804.15" y="907.34" width="16.77" height="8.66" style="fill: rgb(85,85,255); fill-opacity: 1.0" clip-path="url(#_13451207199183clip-2)"/><g ><text x="790.53" y="901.82" style="fill: rgb(0,0,0); fill-opacity: 1.0; font-family: sans-serif; font-size: 12px;" clip-path="url(#_13451207199183clip-2)">109,602</text></g><rect x="830.98" y="79.81" width="16.77" height="836.19" style="fill: rgb(85,255,85); fill-opacity: 1.0" clip-path="url(#_13451207199183clip-2)"/><g ><text x="812.36" y="74.29" style="fill: rgb(0,0,0); fill-opacity: 1.0; font-family: sans-serif; font-size: 12px;" clip-path="url(#_13451207199183clip-2)">10 580,06</text></g><rect x="83" y="38" width="805" height="878" style="stroke-width: 0.5;stroke: rgb(0,0,0);stroke-opacity: 1.0;stroke-linecap: round;stroke-linejoin: round;stroke-miterlimit: 10;shape-rendering:crispEdges;; fill: none" clip-path="url(#_13451207199183clip-0)"/></svg>
